<?xml version="1.0" standalone="no"?>
<!DOCTYPE svg PUBLIC "-//W3C//DTD SVG 1.1//EN" "http://www.w3.org/Graphics/SVG/1.1/DTD/svg11.dtd" >
<svg xmlns="http://www.w3.org/2000/svg">
<metadata></metadata>
<defs>
<font id="eastside_regularregular" horiz-adv-x="741" >
<font-face units-per-em="2048" ascent="1559" descent="-489" />
<missing-glyph horiz-adv-x="434" />
<glyph unicode="&#x2e;&#x2e;&#x2e;" horiz-adv-x="1005" d="M61 55q0 40 31 81.5t82 41.5q29 0 43 -18t14 -47q0 -40 -33 -79.5t-79 -39.5q-58 0 -58 61zM350 55q0 40 32 81.5t81 41.5q27 0 42 -18.5t15 -46.5q0 -40 -33 -79.5t-77 -39.5q-60 0 -60 61zM639 55q0 40 31 81.5t80 41.5q57 0 57 -65q0 -41 -32.5 -80t-78.5 -39 q-57 0 -57 61z" />
<glyph horiz-adv-x="0" />
<glyph horiz-adv-x="682" />
<glyph unicode=" "  horiz-adv-x="434" />
<glyph unicode="&#x09;" horiz-adv-x="434" />
<glyph unicode="&#xa0;" horiz-adv-x="434" />
<glyph unicode="!" horiz-adv-x="600" d="M109 55q0 41 33.5 80t78.5 39q29 0 44.5 -16t15.5 -41q0 -41 -32 -82t-83 -41q-27 0 -42 17t-15 44zM195 270l368 1268h180l-432 -1268h-116z" />
<glyph unicode="&#x22;" horiz-adv-x="620" d="M236 1237l22 78q24 2 47 17t33 36q-34 -8 -52 11t-18 51q0 40 31.5 77t77.5 37q26 0 41.5 -18.5t15.5 -50.5q0 -83 -60 -155.5t-138 -82.5zM469 1237l23 78q23 2 45.5 17t31.5 36q-32 -8 -50.5 11t-18.5 51q0 40 32.5 77t79.5 37q28 0 43 -18.5t15 -50.5 q0 -83 -61.5 -155t-139.5 -83z" />
<glyph unicode="#" horiz-adv-x="935" d="M-27 244l33 108h193l59 193h-192l34 110h193l80 250h135l-80 -250h162l80 250h135l-80 -250h193l-35 -110h-193l-59 -193h192l-35 -108h-192l-80 -250h-135l80 250h-162l-80 -250h-135l80 250h-191zM334 352h162l59 193h-158z" />
<glyph unicode="$" horiz-adv-x="655" d="M-35 170q0 67 45.5 122t116.5 79l74 -88q-45 -9 -75 -42t-30 -73q0 -46 33 -77.5t82 -31.5q76 0 129 54t53 135q0 36 -23 77.5t-55.5 82t-65.5 83t-56 94t-23 101.5q0 94 58 153t147 70l33 101h108l-37 -121q33 -17 51.5 -46t18.5 -61q0 -44 -31.5 -75.5t-79.5 -42.5 l-47 67q51 8 51 57q0 18 -14 35t-39 17q-42 0 -71 -33t-29 -82q0 -30 25 -66t60 -72.5t70.5 -77.5t60.5 -95t25 -111q0 -128 -100.5 -217.5t-228.5 -95.5l-35 -101h-105l35 113q-61 24 -96 67t-35 101z" />
<glyph unicode="%" horiz-adv-x="888" d="M8 -6l676 911h158l-676 -911h-158zM27 590q0 124 68 219.5t155 95.5q58 0 87.5 -44t29.5 -107q0 -122 -68 -218t-152 -96q-57 0 -88.5 45t-31.5 105zM131 594q0 -76 33 -76q32 0 66 77.5t34 158.5q0 75 -31 75q-32 0 -67 -76t-35 -159zM485 145q0 122 67.5 217t152.5 95 q57 0 87.5 -44t30.5 -104q0 -123 -68 -219t-153 -96q-58 0 -87.5 44t-29.5 107zM586 147q0 -77 32 -77q19 0 44 36t43 92.5t18 106.5q0 80 -33 80q-34 0 -69 -76.5t-35 -161.5z" />
<glyph unicode="&#x26;" horiz-adv-x="1040" d="M27 344q0 104 41.5 193t102 146.5t135 100t135.5 62t108 24.5q-25 7 -55.5 25t-64.5 48.5t-56.5 79t-22.5 105.5q0 141 108.5 240.5t260.5 99.5q117 0 183.5 -59t66.5 -145q0 -66 -45 -123t-93 -88l-94 71q64 41 92 89t20 85.5t-41.5 62.5t-82.5 25q-87 0 -150 -72.5 t-63 -180.5q0 -100 55 -157.5t148 -76.5l-23 -100q-96 -3 -184 -33.5t-159 -85t-113.5 -142t-42.5 -194.5q0 -128 77.5 -200t202.5 -72q70 0 127.5 23.5t92 58.5t58 79.5t33 84t9.5 73.5q0 65 -27.5 108.5t-77.5 43.5q-45 0 -79.5 -27t-51.5 -65t-24 -74.5t-3 -59.5l-98 19 q5 80 38.5 141t86 99.5t116 68t134 54.5t134 50.5t120.5 65t90 90.5l66 -114q-30 -38 -78.5 -69t-112 -53.5t-107 -35t-105.5 -27.5q-2 0 -3.5 -0.5t-3.5 -1t-3.5 -1l-3 -1t-3.5 -0.5q61 -14 107 -73t46 -138q0 -70 -35.5 -140.5t-97.5 -128.5t-157.5 -95t-204.5 -39 q-175 -5 -301.5 98t-126.5 258z" />
<glyph unicode="'" horiz-adv-x="389" d="M236 1237l22 78q24 2 47 17t33 36q-34 -8 -52 11t-18 51q0 40 31.5 77t77.5 37q26 0 41.5 -18.5t15.5 -50.5q0 -83 -60 -155.5t-138 -82.5z" />
<glyph unicode="(" horiz-adv-x="548" d="M176 297q0 307 132.5 638.5t387.5 625.5h117q-510 -759 -510 -1461q0 -16 2 -53t2 -57h-96q-35 152 -35 307z" />
<glyph unicode=")" horiz-adv-x="559" d="M-31 -10q251 376 381.5 737.5t130.5 724.5q0 74 -4 109h94q35 -132 35 -301q0 -308 -131.5 -640t-386.5 -630h-119z" />
<glyph unicode="*" horiz-adv-x="403" d="M86 1116l8 6q7 6 20.5 17t29.5 24.5t37.5 32.5t41.5 37q-110 39 -133 39l57 92q8 -8 121 -55q37 127 37 151h105l-58 -151q154 51 158 55l4 -100q-22 0 -164 -37q14 -31 28.5 -59t22 -40t9.5 -14l-97 -63q0 18 -43 129q-20 -20 -38.5 -40.5t-31 -36.5t-22 -28.5 t-14.5 -20.5l-6 -7z" />
<glyph unicode="+" horiz-adv-x="534" d="M18 420l33 104h154l53 174h111l-54 -174h154l-35 -104h-149l-58 -172h-110l53 172h-152z" />
<glyph unicode="," horiz-adv-x="432" d="M35 -137l18 80q23 3 47 18t35 37q-36 -8 -55 10t-19 47q0 41 34 80t81 39q26 0 41.5 -19.5t15.5 -50.5q0 -83 -60 -155t-138 -86z" />
<glyph unicode="-" horiz-adv-x="788" d="M215 420l31 104h420l-31 -104h-420z" />
<glyph unicode="." horiz-adv-x="432" d="M61 55q0 41 34 80t81 39q57 0 57 -57q0 -42 -29.5 -82.5t-80.5 -40.5q-30 0 -46 17t-16 44z" />
<glyph unicode="/" horiz-adv-x="663" d="M-12 -6l1018 1567h149l-1020 -1567h-147z" />
<glyph unicode="0" horiz-adv-x="753" d="M18 293q0 121 34.5 234t92.5 197t139.5 134.5t170.5 50.5q100 0 163.5 -81t63.5 -222q0 -150 -56.5 -291t-156.5 -231t-215 -90q-102 0 -169 73.5t-67 225.5zM180 262q0 -83 22 -129.5t60 -46.5q63 0 125 95.5t99.5 230t37.5 252.5q0 73 -23 113t-59 40q-61 0 -123 -92.5 t-100.5 -222.5t-38.5 -240z" />
<glyph unicode="1" horiz-adv-x="512" d="M27 -2l227 702q-70 -70 -166 -110l43 127q55 39 101 85t64.5 71t18.5 28h158l-289 -903h-157z" />
<glyph unicode="2" horiz-adv-x="634" d="M-47 72q24 73 63.5 137t83 110.5t91 88.5t90 78t77 71.5t54.5 77t20 86.5q0 42 -23 69t-59 27q-31 0 -56 -18t-40 -46.5t-23 -53.5t-12 -48l-135 33q14 86 85.5 156.5t186.5 70.5q100 0 164 -59t64 -150q0 -63 -28.5 -120t-72.5 -99t-101.5 -88.5t-112 -87t-108 -96 t-85.5 -113.5l405 31l-47 -131h-446z" />
<glyph unicode="3" horiz-adv-x="643" d="M-98 47l133 86q-4 -20 -4 -61q0 -66 31 -114t81 -48q75 0 131 79t56 181q0 100 -62 145t-141 35l47 117q100 9 171 84t71 158q0 53 -24 80.5t-60 27.5q-25 0 -46 -13.5t-32.5 -29t-22.5 -44t-14.5 -41.5t-9.5 -38l-129 33q12 85 83.5 156t184.5 71q95 0 156 -56t61 -153 q0 -107 -84.5 -188.5t-189.5 -103.5q73 -11 136.5 -77.5t63.5 -174.5q0 -142 -101 -245t-249 -103q-107 0 -172 69t-65 168z" />
<glyph unicode="4" horiz-adv-x="710" d="M-35 360l502 541h158l-164 -522h178l-27 -88h-180l-94 -293h-158l94 293h-278zM106 379h197l105 338z" />
<glyph unicode="5" horiz-adv-x="663" d="M-57 47l135 86q-20 -82 13 -151.5t93 -69.5q57 0 103 51t68 122.5t22 143.5q0 83 -31.5 125.5t-83.5 42.5q-72 0 -149 -88l-74 58l170 538h426l-49 -162h-316l-88 -282q55 31 119 31q110 0 174 -82t64 -205q0 -163 -104 -279t-253 -116q-107 0 -173 69t-66 168z" />
<glyph unicode="6" horiz-adv-x="731" d="M23 252q0 153 73.5 322.5t209 309t294.5 187.5l53 -135q-69 -15 -132 -50.5t-107 -76t-81.5 -89.5t-59 -87t-35.5 -72q94 103 211 103q81 0 135.5 -57.5t54.5 -155.5q0 -119 -53 -224.5t-144 -169t-196 -63.5q-104 0 -163.5 71t-59.5 187zM168 221q0 -62 28.5 -98.5 t69.5 -36.5q56 0 107.5 55.5t79.5 132.5t28 148q0 60 -24.5 98.5t-71.5 38.5q-73 0 -145 -103t-72 -235z" />
<glyph unicode="7" horiz-adv-x="606" d="M-57 -190q50 158 125 318.5t150 281t138 206t105 127.5h-385l51 162h424l61 -149q-54 -68 -110 -148.5t-132.5 -207t-144.5 -282t-108 -308.5h-174z" />
<glyph unicode="8" horiz-adv-x="724" d="M-16 213q0 117 72 222.5t177 148.5q-59 69 -59 164q0 128 97 230.5t229 102.5q82 0 139 -53t57 -149q0 -102 -55 -185t-133 -121q41 -26 67.5 -69.5t26.5 -100.5q0 -109 -50.5 -203t-140 -150t-196.5 -56q-101 0 -166 59.5t-65 159.5zM145 203q0 -56 25.5 -86.5 t65.5 -30.5q81 0 143.5 99.5t62.5 215.5q0 51 -23.5 84t-64.5 33q-77 0 -143 -96.5t-66 -218.5zM319 717q0 -96 62 -96q57 0 113.5 85t56.5 183q0 48 -18.5 76t-51.5 28q-61 0 -111.5 -81t-50.5 -195z" />
<glyph unicode="9" horiz-adv-x="731" d="M18 -49q95 24 174.5 73t126 99.5t79.5 101t45 79t12 32.5q-33 -39 -89 -69.5t-130 -30.5q-89 0 -142 59.5t-53 167.5q0 102 50.5 204.5t141 172t193.5 69.5q101 0 164 -70.5t63 -213.5q0 -172 -77.5 -341.5t-212 -294t-293.5 -169.5zM201 473q0 -139 88 -139 q83 0 151 103t68 229q0 147 -92 147q-56 0 -106.5 -53.5t-79.5 -132t-29 -154.5z" />
<glyph unicode=":" horiz-adv-x="454" d="M61 55q0 42 32.5 80.5t80.5 38.5q29 0 44 -16t15 -41q0 -41 -31.5 -82t-82.5 -41q-27 0 -42.5 17t-15.5 44zM250 649q0 43 32.5 82t79.5 39q58 0 58 -57q0 -41 -32.5 -82t-82.5 -41q-27 0 -41 16t-14 43z" />
<glyph unicode=";" horiz-adv-x="456" d="M35 -137l22 80q23 3 46.5 18t31.5 37q-33 -8 -51 10t-18 47q0 41 32.5 80t77.5 39q29 0 44.5 -19t15.5 -51q0 -83 -60.5 -155t-140.5 -86zM254 649q0 43 32.5 82t80.5 39q55 0 55 -57q0 -42 -30 -82.5t-81 -40.5q-57 0 -57 59z" />
<glyph unicode="&#x3c;" horiz-adv-x="485" d="M27 571l428 351l67 -109l-366 -262l186 -236l-100 -79z" />
<glyph unicode="=" horiz-adv-x="608" d="M18 313l35 107h416l-31 -107h-420zM84 524l35 105h416l-31 -105h-420z" />
<glyph unicode="&#x3e;" horiz-adv-x="481" d="M-31 344l367 262l-189 236l103 80l213 -336l-428 -350z" />
<glyph unicode="?" horiz-adv-x="792" d="M145 55q0 42 32.5 80.5t80.5 38.5q55 0 55 -57q0 -42 -29.5 -82.5t-80.5 -40.5q-58 0 -58 61zM215 385q0 57 33.5 115t87.5 110t119 107.5t130 116t119 124.5t87.5 144.5t33.5 165.5q0 88 -46 142t-128 54q-104 0 -187 -100t-83 -227q0 -126 94 -170l-80 -93 q-73 23 -111 87t-38 153q0 107 57 204.5t158.5 158.5t218.5 61q138 0 223.5 -82t85.5 -227q0 -86 -38 -170t-98.5 -152t-133.5 -131.5t-146 -117.5t-133.5 -101.5t-98.5 -91.5t-38 -80q0 -33 21 -33q15 0 32.5 16.5t24.5 41.5q6 -11 20.5 -30.5t25.5 -32.5t13 -15 q-13 -35 -43.5 -54.5t-62.5 -19.5q-49 0 -84 33t-35 94z" />
<glyph unicode="@" horiz-adv-x="1466" d="M16 221q-3 181 50 347.5t145.5 292.5t212 220t253.5 142.5t265 48.5q97 0 183.5 -30.5t153 -88t105.5 -147.5t39 -201q0 -113 -34.5 -233t-93.5 -221.5t-132 -182.5t-156 -127.5t-159 -46.5q-56 0 -90.5 35.5t-42.5 95.5q-105 -131 -203 -131q-77 0 -117.5 66.5 t-40.5 183.5q0 69 18.5 155t55.5 175.5t87 164.5t120 122.5t147 47.5q76 0 119 -57l17 49h157q-229 -711 -229 -795q0 -22 4 -30t14 -8q36 0 86.5 35.5t105.5 104t102 156.5t77.5 206t30.5 239q0 54 -10.5 105.5t-36 102t-63.5 88.5t-98 61.5t-134 23.5q-78 0 -164 -30.5 t-170.5 -86.5t-161 -142.5t-135 -190t-93 -237.5t-34.5 -278q0 -122 34 -217t92 -152.5t131 -86.5t157 -29q217 0 404 115.5t290 291.5l104 -53q-162 -220 -371 -330t-438 -110q-111 0 -210 38.5t-175 109t-121 179t-47 240.5zM489 152q0 -84 43 -84q15 0 33 10t43 35.5 t56 79t61 129.5q30 75 62.5 171t62.5 194.5t35 113.5q-20 20 -56 20q-83 0 -164.5 -114t-128.5 -269.5t-47 -285.5z" />
<glyph unicode="A" horiz-adv-x="1640" d="M-61 117q0 110 42.5 216.5t110.5 186.5t159.5 129t184.5 49q82 0 126 -49.5t44 -124.5q0 -52 -18 -98l-178 -39q27 36 44 80.5t17 77.5q0 63 -57 63q-53 0 -114.5 -42.5t-112.5 -110t-85 -158.5t-34 -180q0 -99 44 -159t119 -60q179 0 471.5 397.5t727.5 1242.5h141 l-158 -1702h-170l60 551h-381q-73 -111 -144.5 -199.5t-129.5 -146.5t-116 -100t-100.5 -64t-87 -34.5t-70.5 -15.5t-57 -3q-128 0 -203 79t-75 214zM983 475h330l92 823q-240 -522 -422 -823z" />
<glyph unicode="B" horiz-adv-x="1503" d="M0 -29q0 61 64.5 107.5t175.5 46.5q79 0 200 -53q40 85 115 313l289 895h166l-183 -571q94 8 175.5 58t133.5 121.5t81.5 154t29.5 159.5q0 126 -77.5 198.5t-229.5 72.5q-124 0 -249.5 -64t-219 -164.5t-152.5 -229t-59 -251.5q0 -49 11.5 -86t30.5 -57t40.5 -33 t45.5 -16t41.5 -2.5t31.5 3.5l-43 -122q-11 -1 -23 -1l-57 6q-40 8 -81 30.5t-72.5 58.5t-51.5 96t-20 135q0 89 29.5 182.5t83 179t131.5 161.5t170.5 132t205 88.5t230.5 32.5q62 0 121.5 -11.5t117.5 -39.5t101.5 -70.5t70.5 -109.5t27 -150q0 -70 -21 -135t-53.5 -113 t-73 -89.5t-80 -69.5t-74 -48t-54 -29t-21.5 -9q3 0 20 -4t49.5 -15.5t68.5 -29t73.5 -48.5t67.5 -69.5t49.5 -96t19.5 -124.5q0 -140 -73.5 -248.5t-190 -163.5t-252.5 -55q-102 0 -182.5 28t-175.5 80q-108 -108 -267 -108q-109 0 -170 43.5t-61 103.5zM133 -37 q0 -28 23 -46.5t65 -18.5q97 0 168 96q-74 41 -153 41q-48 0 -75.5 -21.5t-27.5 -50.5zM563 6q59 -35 93 -52.5t89 -34.5t107 -17q161 0 258.5 117.5t97.5 297.5q0 72 -30.5 129.5t-75.5 90.5t-103 55t-106 30t-92 9l-84 -262q-27 -85 -39.5 -121.5t-45.5 -112.5t-69 -129z " />
<glyph unicode="C" horiz-adv-x="1048" d="M41 416q0 173 50.5 344t139.5 311.5t201.5 250t244.5 170t261 60.5q136 0 202 -70t66 -175q0 -83 -33.5 -163.5t-85 -139.5t-113 -107.5t-117 -76.5t-97.5 -38l-25 164q172 55 270.5 168.5t98.5 222.5q0 127 -154 127q-81 0 -167.5 -39.5t-166.5 -108.5t-152.5 -169.5 t-126 -216.5t-85 -256t-31.5 -281q0 -96 15.5 -181.5t46.5 -157.5t85 -114t124 -42q51 0 100.5 23t85 53.5t71.5 77.5t55.5 79t41.5 74l88 -105q-69 -115 -188.5 -195.5t-262.5 -80.5q-140 0 -242 81t-151 213t-49 298z" />
<glyph unicode="D" horiz-adv-x="1527" d="M0 -25q0 59 58.5 104.5t158.5 45.5q97 0 215 -70q56 98 129 330l287 895h166l-291 -911q-3 -8 -16 -50t-19 -58.5l-20 -55t-25 -62.5t-27 -56.5t-33.5 -59.5t-37.5 -52q104 -73 211 -73q113 0 219.5 93t181 237t119.5 322t45 345q0 290 -96 429.5t-295 139.5 q-122 0 -245 -63.5t-215.5 -163t-151 -227t-58.5 -250.5q0 -60 16.5 -102t39.5 -60.5t52 -26.5t48.5 -7t34.5 5l-43 -124q-11 -1 -22 -1q-29 0 -57 6q-39 8 -79 31t-70.5 59t-49.5 95t-19 133q0 139 65 279t172.5 251t260.5 180.5t317 69.5q279 0 422 -183.5t143 -508.5 q0 -200 -62 -391t-163 -332t-236.5 -227t-275.5 -86q-155 0 -281 82q-95 -82 -240 -82q-112 0 -172.5 44t-60.5 107zM137 -41q0 -25 23.5 -43t64.5 -18q87 0 154 77q-39 30 -70 45t-69 15q-48 0 -75.5 -22.5t-27.5 -53.5z" />
<glyph unicode="E" horiz-adv-x="1103" d="M10 248q0 88 23.5 167.5t62 138.5t91 110t106 85.5t111.5 61.5t104 41.5t86 21.5q-27 7 -57.5 27.5t-61 53.5t-50 86t-19.5 114q0 158 122.5 277.5t288.5 119.5q127 0 194.5 -67.5t67.5 -163.5q0 -56 -31.5 -114.5t-60.5 -89t-55 -50.5l-105 74q68 45 102 102.5t34 112.5 q0 54 -36 88.5t-100 34.5q-108 0 -186 -96t-78 -226q0 -222 232 -264l-25 -86q-14 1 -27 1q-135 0 -257 -64q-134 -70 -220 -205t-86 -303q0 -151 89.5 -244.5t228.5 -93.5q85 0 159 38t121.5 97t74 127.5t26.5 132.5q0 82 -36 131t-91 49q-50 0 -92 -31.5t-68 -82t-39 -84 t-21 -66.5l-108 65q15 42 41.5 84t67.5 86.5t103 72.5t134 28q99 0 171.5 -65t72.5 -187q0 -90 -40.5 -175t-110.5 -150t-170.5 -104.5t-213.5 -39.5q-210 0 -339.5 124t-129.5 300z" />
<glyph unicode="F" horiz-adv-x="919" d="M-82 1085q0 65 21.5 129t69.5 125.5t117 108.5t172 75.5t226 28.5q53 0 114 -6t98.5 -11.5t106 -17.5t91.5 -16q77 51 162 51q52 0 84 -21.5t32 -55.5q0 -32 -36.5 -55t-94.5 -23q-57 0 -104 12q-51 -48 -98.5 -128.5t-91 -191t-72 -195.5t-66.5 -210q114 8 209.5 32.5 t134.5 61.5l-37 -141q-63 -25 -176 -38t-164 -13l-243 -750h-164l233 727q-98 -21 -157.5 -59.5t-73.5 -118.5l-113 21q13 62 47 108.5t86.5 76t109.5 47t132 30.5q43 142 74 230.5t77 195t102 188.5t126 148q-222 36 -332 36q-105 0 -188 -26t-132.5 -66.5t-82 -93 t-44.5 -100.5t-12 -95q0 -79 27 -127.5t78 -48.5q48 0 108 43l15 -112q-56 -23 -109 -23q-109 0 -185.5 73t-76.5 195z" />
<glyph unicode="G" horiz-adv-x="1087" d="M41 524q0 113 33 235.5t91 235.5t141 215t177.5 177.5t206.5 120t223 44.5q137 0 202 -70t65 -175q0 -84 -32.5 -163t-82 -137.5t-111 -107t-116.5 -76.5t-101 -41l-22 164q115 37 201 106t126.5 142.5t40.5 142.5q0 127 -153 127q-128 0 -259 -86.5t-230.5 -222.5 t-162.5 -314t-63 -352q0 -190 74 -305.5t194 -115.5q66 0 126.5 40t106 105.5t76.5 130t54 131.5h168l-176 -522q-26 -79 -62 -156q107 -73 166 -180l-121 -70q-35 93 -98 150q-161 -277 -412 -277q-105 0 -170 59t-65 146q0 51 26 99.5t73 88.5t121 64.5t161 24.5 q105 0 192 -35l72 215q-44 -37 -110 -64.5t-142 -27.5q-192 0 -310 141.5t-118 392.5zM178 -383q0 -52 36.5 -86.5t96.5 -34.5q90 0 167 80t132 203q-78 31 -153 31q-123 0 -201 -56t-78 -137z" />
<glyph unicode="H" horiz-adv-x="1339" d="M-225 -164q6 232 154 397.5t427 292.5l330 1012h166l-303 -936q52 20 128.5 45.5t133 42.5t134.5 41t95 29l86 268q44 136 87.5 239t93 185.5t105 126t114.5 43.5q67 0 103 -54.5t36 -142.5q0 -80 -28 -171.5t-82.5 -186.5t-147 -185t-209.5 -153l-289 -893h-164 q142 448 259 807q-290 -83 -494 -164l-207 -643h-166l180 555q-386 -205 -415 -555h-127zM1237 856q87 59 156 141.5t107 165.5t57.5 157t19.5 132q0 43 -11.5 67.5t-31.5 24.5q-60 0 -112.5 -127.5t-154.5 -462.5q-7 -21 -10.5 -33t-9 -30.5t-10.5 -34.5z" />
<glyph unicode="I" horiz-adv-x="792" d="M-41 532q0 58 23 112t62.5 99.5t92 90.5t113.5 90t124 92t126 103t117.5 116.5t100.5 138.5t73 164h161l-546 -1702h-166l432 1350q-56 -76 -138 -156.5t-151.5 -140.5t-134 -122.5t-102 -126t-37.5 -126.5q0 -94 63 -94q28 0 78 31v-111q-32 -14 -86 -14q-37 0 -70.5 10 t-65 32t-50.5 64t-19 100z" />
<glyph unicode="J" horiz-adv-x="925" d="M-205 -356q0 162 128.5 271.5t309.5 109.5q101 0 187 -27q171 538 385 1188q-56 -76 -138.5 -156.5t-152.5 -140.5t-135 -122.5t-103 -126t-38 -126.5q0 -94 59 -94q17 0 37 7.5t32.5 15t12.5 8.5v-111q-31 -14 -82 -14q-38 0 -72 10t-66.5 32t-51.5 64t-19 100 q0 73 37 140.5t99 124t138.5 113.5t160.5 121.5t159 134.5t139.5 167t98.5 205h165l-481 -1501q-35 -97 -43 -117q104 -74 162 -180l-119 -68q-44 89 -90 138q-189 -390 -483 -390q-108 0 -172 63t-64 161zM-66 -362q0 -67 32 -107.5t85 -40.5q185 0 338 416q-77 31 -151 31 q-130 0 -217 -85t-87 -214z" />
<glyph unicode="K" horiz-adv-x="1302" d="M-41 532q0 73 37 140.5t99 124t138.5 113.5t160.5 121.5t159 134.5t139.5 167t98.5 205h165l-280 -870q66 8 136 61.5t131.5 132t124.5 171.5t125 184.5t122 166.5t125.5 121.5t126.5 46.5q35 0 64 -12.5t45.5 -33t24.5 -33t13 -25.5l-74 -53q-6 16 -10 25.5t-14 25.5 t-24 24.5t-31 8.5q-32 0 -70.5 -44t-80.5 -116t-90.5 -160t-109 -179.5t-126.5 -170.5t-153 -137.5t-179 -75.5q69 -60 133.5 -151t109 -180t89 -180.5t77.5 -160.5t70.5 -113t71.5 -44q64 0 96 100l90 -39q-69 -168 -213 -168q-62 0 -116 40t-95.5 107t-79 150t-75 173.5 t-75.5 172t-88.5 152t-105.5 106.5l-233 -725h-168l436 1350q-56 -76 -138.5 -156.5t-152.5 -140.5t-135 -122.5t-103 -126t-38 -126.5q0 -94 59 -94q17 0 37 7.5t32.5 15t12.5 8.5v-111q-28 -14 -78 -14q-37 0 -71.5 9.5t-68 31.5t-53.5 64.5t-20 100.5z" />
<glyph unicode="L" horiz-adv-x="747" d="M-225 -45q0 65 61.5 117t165.5 53h16q82 0 168 -27q30 66 105 287l373 1153h165l-374 -1169q-2 -5 -12 -36t-13.5 -41t-13.5 -39.5t-16 -44t-16.5 -41t-19 -44.5t-20 -40.5t-22.5 -41.5q66 -33 152.5 -89.5t145.5 -97t133 -71.5t136 -31q55 0 103 40t75 97l100 -61 q-111 -172 -325 -172q-74 0 -157 32t-142 70t-150 100.5t-141 92.5q-117 -127 -285 -127q-95 0 -143.5 37.5t-48.5 93.5zM-129 -45q0 -22 22 -39.5t62 -17.5q108 0 178 108q-81 31 -149 31q-52 0 -82.5 -25t-30.5 -57z" />
<glyph unicode="M" horiz-adv-x="2160" d="M-61 121q0 144 71 279t187 217.5t239 82.5q82 0 126 -50.5t44 -125.5q0 -46 -18 -96l-178 -41q27 37 44 83t17 79q0 63 -53 63q-54 0 -116 -42.5t-113.5 -110t-86 -158.5t-34.5 -180q0 -102 41.5 -160.5t115.5 -58.5q57 0 115.5 31t120 90.5t133.5 160.5t147 225 t168.5 301.5t190.5 372.5t221 455h135l-139 -1333l876 1333h131l-548 -1702h-162l399 1243l-815 -1243h-90l156 1378q-254 -699 -509 -1044.5t-536 -345.5q-129 0 -204.5 81t-75.5 216z" />
<glyph unicode="N" horiz-adv-x="1726" d="M-61 121q0 108 42.5 214.5t110.5 186t159.5 129t184.5 49.5q82 0 125 -50t43 -126q0 -43 -16 -96l-178 -41q61 84 61 162q0 28 -14.5 45.5t-42.5 17.5q-53 0 -115 -42.5t-114 -110t-87 -158.5t-35 -180q0 -101 43.5 -160t118.5 -59q72 0 138 38.5t133 124.5t133 213 t138.5 313t148 416t163.5 531h99l186 -1274l395 1274h131l-549 -1702h-90l-188 1335q-22 -105 -46 -203t-56 -206.5t-66.5 -204t-78.5 -192t-91 -175.5t-104 -148.5t-118.5 -116.5t-134 -74t-149.5 -27q-129 0 -204.5 81t-75.5 216z" />
<glyph unicode="O" horiz-adv-x="1497" d="M10 682v18q0 30 4 58q6 36 12.5 52.5t8.5 18.5l141 35q-8 -33 -12 -64q-6 -32 -10 -82q-2 -18 -1 -35q0 -31 5 -59q8 -44 25 -88.5t55 -79.5t94 -53q7 151 53.5 314t126.5 310.5t180.5 266t225 188.5t249.5 70q62 0 111.5 -18.5t81.5 -49t54 -72.5t31 -86.5t9 -92.5 q0 -113 -29 -215q23 -82 23 -182q-1 -134 -40.5 -278.5t-111 -274t-162.5 -233.5t-203 -165t-224 -61q-163 0 -263 130.5t-112 354.5q-70 15 -126.5 46t-91.5 68.5t-59 83.5t-34 88.5t-11 86.5zM506 293q0 -185 57.5 -284t153.5 -99q106 0 221 115.5t208.5 305.5t145.5 410 q-135 -196 -347.5 -318.5t-438.5 -129.5zM512 387q114 10 224 59.5t196 123t159 165t121.5 186t75.5 184.5t27 163q0 198 -150 198q-65 0 -138 -42.5t-141.5 -115.5t-133 -176.5t-114 -221t-83.5 -254t-43 -269.5z" />
<glyph unicode="P" horiz-adv-x="1273" d="M20 772q0 134 68.5 273.5t183.5 251.5t279.5 183.5t341.5 71.5q139 0 252.5 -49.5t184.5 -153.5t71 -247q0 -150 -63 -292.5t-167.5 -248t-248.5 -169.5t-299 -64l-162 -492h-164l455 1409h163l-264 -831q157 0 289.5 99.5t206.5 258.5t74 334q0 180 -91.5 271t-267.5 91 q-126 0 -253 -62t-223.5 -160.5t-157 -228t-60.5 -257.5q0 -48 11 -84.5t27 -56.5t38 -32.5t40.5 -16t37.5 -3.5q32 0 36 4l-47 -122q-9 -1 -17 -1q-41 0 -81 12q-48 14 -93 49.5t-72.5 103t-27.5 159.5z" />
<glyph unicode="Q" horiz-adv-x="1210" d="M0 -41q0 64 65 115t177 51q122 0 297 -74q128 109 239.5 283t183.5 395t72 430q0 137 -50 222t-146 85q-81 0 -166.5 -52t-159 -144.5t-132 -210t-92.5 -259t-34 -280.5q0 -203 108 -203q26 0 54 19t56 53.5t49 65.5t46 73l107 -57q-86 -123 -165 -175t-169 -52 q-103 0 -169.5 87.5t-66.5 258.5q0 122 29.5 244t80.5 227t121.5 196.5t151 156t171.5 101.5t180 37q171 0 270.5 -122t99.5 -345q0 -193 -81 -405.5t-210.5 -389t-281.5 -292.5q46 -27 127.5 -79.5t130 -81.5t114.5 -54t121 -25q54 0 103 42t74 98l100 -66 q-118 -166 -324 -166q-56 0 -113 14.5t-117.5 46t-104 57.5t-113.5 72.5t-105 67.5q-165 -100 -331 -100q-96 0 -146.5 38.5t-50.5 96.5zM106 -41q0 -25 25 -43t66 -18q114 0 241 77q-130 60 -227 60q-50 0 -77.5 -22.5t-27.5 -53.5z" />
<glyph unicode="R" horiz-adv-x="1327" d="M20 776q0 89 31 182.5t86.5 179.5t136.5 162t175.5 132.5t209 89t232.5 32.5q108 0 202.5 -32t166 -91t112.5 -150t41 -202q0 -134 -53 -259.5t-141.5 -220t-203 -162t-237.5 -93.5q51 -41 98 -117.5t80 -152.5t66 -147t70.5 -115.5t78.5 -44.5q30 0 57 32.5t38 77.5 l108 -63q-30 -52 -87.5 -98t-139.5 -46q-70 0 -125 34.5t-90.5 90t-64 123t-53 136.5t-49.5 127.5t-60.5 99t-79.5 47.5l-160 -492h-168l467 1444h168l-277 -864q106 0 211 54t187 144t133 217t51 263q0 182 -98 280.5t-273 98.5q-84 0 -170.5 -28.5t-162.5 -78t-143 -118.5 t-115.5 -146.5t-76.5 -165t-28 -172.5q0 -43 8.5 -76.5t21.5 -54t32 -34t36 -19.5t37 -8t31.5 -2t23.5 3l-43 -122q-11 -1 -23 -1q-28 0 -56 6q-39 8 -79 30.5t-70.5 58.5t-49.5 96t-19 135z" />
<glyph unicode="S" horiz-adv-x="1124" d="M-31 168q0 164 119 278.5t277 114.5q61 0 111.5 -20t83.5 -53.5t54 -69.5t31 -74l-125 -117q0 43 -7.5 84.5t-24.5 82.5t-50.5 66t-79.5 25q-105 0 -172 -97.5t-67 -227.5q0 -109 76 -185.5t194 -76.5q128 0 231.5 65t160.5 176.5t57 247.5q0 63 -22.5 126t-59 116 t-80 106t-87 104.5t-80 101.5t-59 106.5t-22.5 111.5q0 118 55.5 209t142.5 137.5t187 46.5q127 0 192.5 -67.5t65.5 -163.5q0 -73 -41.5 -140t-103.5 -114l-103 74q65 46 98 101t33 108t-38 89t-103 36q-96 0 -174 -74.5t-78 -198.5q0 -49 25 -101.5t65 -100.5t88.5 -99 t97.5 -106.5t89 -112.5t65 -127t25 -141q0 -126 -52.5 -237.5t-140 -188t-204 -120.5t-242.5 -44q-109 0 -201 40.5t-149.5 120t-57.5 183.5z" />
<glyph unicode="T" horiz-adv-x="806" d="M-82 1081q0 64 21 127.5t69 125.5t116 109t171 76t227 29q37 0 77.5 -2.5t68.5 -5t73 -9t62.5 -9t67.5 -11t59 -10.5q84 51 166 51q50 0 81 -21t31 -52q0 -32 -36.5 -57t-92.5 -25q-55 0 -104 12q-41 -39 -80.5 -102t-67 -120t-64.5 -157.5t-56 -158t-58 -177.5 l-276 -858h-166l282 885q94 295 164.5 443.5t194.5 265.5q-200 34 -330 34q-104 0 -186.5 -26t-132.5 -66.5t-83.5 -93.5t-46 -101.5t-12.5 -95.5q0 -79 28 -127.5t79 -48.5q48 0 108 43l13 -114q-73 -25 -105 -25q-108 0 -185 75t-77 197z" />
<glyph unicode="U" horiz-adv-x="1343" d="M-92 1028q0 90 36.5 183t99 169t155 124t194.5 48q158 0 257.5 -102t99.5 -299q0 -103 -46 -278.5t-100.5 -332.5t-100.5 -316.5t-46 -235.5q0 -68 39 -68q23 0 64.5 32t103.5 106t131.5 179t156 268t168.5 355q86 207 238 678h168l-549 -1702h-166l166 516 q-137 -247 -269 -384.5t-247 -137.5q-150 0 -150 182q0 92 30 217t72.5 249.5t84.5 248.5t72 248.5t30 216.5q0 140 -61.5 207t-157.5 67q-97 0 -177 -68.5t-120.5 -165t-40.5 -192.5q0 -76 30 -119.5t77 -43.5q58 0 112 86l-4 -138q-71 -49 -147 -49q-87 0 -145 67.5 t-58 184.5z" />
<glyph unicode="V" horiz-adv-x="1210" d="M-92 1032q0 123 59 242.5t165.5 198.5t229.5 79q363 0 363 -710q0 -356 -16 -684l684 1380h151l-887 -1702h-108l-4 952v59q-1 122 -7 218q-8 118 -29.5 211.5t-61 141.5t-97.5 48q-67 0 -126 -41t-96.5 -103.5t-59 -132t-21.5 -130.5q0 -86 27 -135.5t76 -49.5 q55 0 114 89l-2 -138q-71 -49 -151 -49q-87 0 -145 68t-58 188z" />
<glyph unicode="W" horiz-adv-x="1826" d="M-92 1032q0 125 58.5 244.5t165 197.5t230.5 78q363 0 363 -710q0 -295 -18 -617l571 1313h119l-13 -1352l590 1352h150l-789 -1702h-118l6 1288l-570 -1288h-114l12 952v63q0 296 -43 448q-48 167 -158 167q-67 0 -126 -41.5t-96.5 -103.5t-59 -130.5t-21.5 -127.5 q0 -89 27 -139t76 -50q55 0 114 89l-2 -138q-71 -49 -151 -49q-87 0 -145 68t-58 188z" />
<glyph unicode="X" horiz-adv-x="1155" d="M0 1022q0 132 58 253.5t164.5 199t232.5 77.5q65 0 118 -31.5t90.5 -84t66 -131t46.5 -161.5t31 -186l362 580h146l-486 -778q5 -59 10.5 -136.5t9.5 -135.5t9 -127t11 -119.5t14 -103.5t19 -89.5t24.5 -66t32 -44t40.5 -14.5q33 0 66.5 22t50.5 48l-37 -135 q-45 -35 -94 -35q-57 0 -103.5 24t-79.5 70.5t-57.5 103.5t-41.5 137t-27 155t-19 171l-403 -649h-150l537 854q-26 351 -44 468q-42 265 -136 301q-17 7 -35 7q-71 0 -139.5 -67t-108 -160.5t-39.5 -175.5q0 -89 26.5 -137.5t76.5 -48.5q57 0 114 86l-2 -138 q-71 -49 -149 -49q-86 0 -145.5 66t-59.5 180z" />
<glyph unicode="Y" horiz-adv-x="1359" d="M-92 1024q0 129 57.5 250t163 199.5t229.5 78.5q157 0 256 -106t99 -305q0 -93 -28.5 -210.5t-56.5 -217.5t-28 -150q0 -65 47 -65q25 0 65 28t100.5 96t127 167t150.5 257.5t167 350.5q12 25 20.5 46.5t18.5 53.5t13 41h166q-297 -910 -416 -1290q-22 -71 -41 -113 q109 -83 160 -182l-119 -70q-34 86 -88 142q-90 -188 -211.5 -289t-270.5 -101q-110 0 -172.5 63t-62.5 161q0 106 59.5 194t160 137.5t218.5 49.5q98 0 189 -31l235 727q-141 -255 -269 -390.5t-247 -135.5q-143 0 -143 176q0 76 24.5 178.5t49 213t24.5 204.5 q0 140 -56.5 212t-144.5 72q-82 0 -155 -61.5t-114.5 -154.5t-41.5 -187q0 -88 28 -137t79 -49q57 0 114 86l-6 -138q-71 -49 -147 -49q-89 0 -146 66.5t-57 181.5zM391 -147q0 -68 32 -108t85 -40q190 0 340 412q-72 30 -156 30q-128 0 -214.5 -84t-86.5 -210z" />
<glyph unicode="Z" horiz-adv-x="901" d="M20 -106l994 1558q-44 -6 -79 -6h-21q-42 2 -124.5 10t-134.5 8q-106 0 -191 -23.5t-140.5 -62t-92.5 -90.5t-53 -107t-16 -114q0 -88 27 -138t73 -50q61 0 117 86l-2 -136q-77 -51 -156 -51q-82 0 -138 69t-56 189q0 97 36.5 188t104.5 165t176.5 118.5t241.5 44.5 q107 0 249 -24.5t197 -24.5q82 0 144 58l53 -48l-1010 -1597h8q67 0 129 -16q66 -17 118.5 -41t103 -48.5t109 -41.5t116.5 -17q61 0 108.5 39t77.5 98l96 -61q-111 -172 -323 -172q-73 0 -146.5 20.5t-132.5 49.5t-114 58.5t-109.5 50t-99.5 20.5q-39 0 -82 -19z" />
<glyph unicode="[" horiz-adv-x="731" d="M96 -6l490 1567h377l-35 -105h-221l-431 -1358h224l-31 -104h-373z" />
<glyph unicode="\" horiz-adv-x="647" d="M-123 1561h131l553 -1567h-129z" />
<glyph unicode="]" horiz-adv-x="712" d="M-39 -6l35 104h219l430 1358h-223l31 105h374l-491 -1567h-375z" />
<glyph unicode="^" horiz-adv-x="348" d="M63 1051l261 194l153 -209l-98 -69l-76 166l-168 -168z" />
<glyph unicode="_" horiz-adv-x="415" d="M-197 -158l35 105h416l-31 -105h-420z" />
<glyph unicode="`" horiz-adv-x="1576" d="M657 1182l93 98l217 -229l-60 -68z" />
<glyph unicode="a" d="M-16 248q0 86 30.5 196.5t83 215.5t136.5 177t178 72q75 0 120 -53l17 49h158q-230 -706 -230 -799q0 -38 19 -38q45 0 133 131t164 286q23 12 47.5 2t27.5 -32q-39 -83 -79.5 -154t-92.5 -145.5t-108.5 -118t-108.5 -43.5q-57 0 -91 36t-42 95q-107 -131 -207 -131 q-74 0 -114.5 67t-40.5 187zM117 168q0 -100 47 -100q14 0 32.5 11t43 36.5t55.5 80t61 130.5q77 195 158 475q-19 22 -53 22q-62 0 -126 -68t-111 -167.5t-77 -213.5t-30 -206z" />
<glyph unicode="b" horiz-adv-x="706" d="M12 240q0 148 66 358l299 940h155l-221 -696q76 69 158 69q67 0 108 -61t41 -164q0 -113 -42.5 -245.5t-114.5 -237.5q44 2 87 25.5t74 54.5t61 74t45.5 70.5t29.5 57.5q23 12 48 2t28 -32q-79 -179 -191 -259q-101 -72 -219 -72q-13 0 -27 1q-115 -131 -221 -131 q-164 0 -164 246zM131 170q0 -102 53 -102q38 0 101 79q-58 32 -89 90t-34 113q-31 -87 -31 -180zM219 451q0 -58 25 -130.5t80 -103.5q61 111 103 250.5t42 249.5q0 44 -18.5 72t-47.5 28q-47 0 -90.5 -56.5t-68.5 -141t-25 -168.5z" />
<glyph unicode="c" horiz-adv-x="606" d="M-2 283q0 152 59.5 297t162 237t216.5 92q68 0 112 -49.5t44 -150.5q0 -79 -21 -146l-149 -57q47 103 47 213t-47 110q-39 0 -86.5 -52t-87.5 -132t-67 -185.5t-27 -203.5q0 -77 25 -132.5t75 -55.5q206 0 403 417q25 12 49 2t27 -32q-205 -461 -500 -461 q-100 0 -167.5 74.5t-67.5 214.5z" />
<glyph unicode="d" d="M-16 248q0 56 13.5 125.5t38 143.5t63 144t84.5 125.5t106.5 89t124.5 33.5q76 0 121 -53l215 682h157q-91 -272 -260.5 -821t-169.5 -611q0 -38 19 -38q45 0 133 131t164 286q23 12 46 2t29 -32q-223 -461 -389 -461q-55 0 -90 36.5t-43 94.5q-107 -131 -205 -131 q-76 0 -116.5 67t-40.5 187zM119 160q0 -44 12.5 -68t32.5 -24q14 0 32.5 11t43.5 36.5t55.5 80t60.5 130.5q38 95 95 272t67 203q-19 22 -57 22q-63 0 -127 -68t-110.5 -168t-75.5 -216t-29 -211z" />
<glyph unicode="e" horiz-adv-x="628" d="M-2 279q0 148 62.5 295t165 241t208.5 94q60 0 104 -47.5t44 -136.5q0 -174 -128.5 -300t-308.5 -138q-1 -12 -1 -25q0 -20 2 -41q4 -35 17 -70.5t41.5 -59t67.5 -23.5q82 0 192 105t216 312q23 12 48 2t28 -32q-120 -246 -247 -353.5t-271 -107.5q-46 0 -86.5 15.5 t-76 47.5t-56.5 89t-21 133zM154 350q65 10 122.5 57.5t93 110.5t56 128.5t20.5 117.5q0 65 -28 65q-58 0 -135.5 -137t-128.5 -342z" />
<glyph unicode="f" horiz-adv-x="636" d="M-236 -418l451 1424q82 261 178.5 398.5t198.5 137.5q70 0 107.5 -68t37.5 -180q0 -105 -32.5 -230t-94 -254t-162.5 -252t-225 -208q0 -29 3.5 -68t12.5 -90.5t30 -86.5t50 -35q53 0 112.5 47t110 118.5t86.5 134t60 115.5q23 12 48 2t28 -32q-16 -37 -39 -82 t-68.5 -116.5t-94 -126t-115.5 -95.5t-132 -41q-53 0 -91.5 27.5t-57 69.5t-27 79.5t-8.5 69.5l-209 -658h-158zM180 403q106 99 192.5 237.5t137 274t77.5 256t27 207.5q0 78 -36 78q-57 0 -147 -256q-26 -76 -120 -377z" />
<glyph unicode="g" horiz-adv-x="718" d="M-51 -381q0 75 68.5 162t228.5 172l35 119q-71 -62 -140 -62q-76 0 -116.5 67t-40.5 185q0 56 13 124.5t37.5 141t62.5 141t83.5 122t105.5 86t124 32.5q75 0 120 -53l17 49h158l-267 -842q75 53 115 90t93.5 115.5t123.5 216.5q23 12 47 2t29 -32q-31 -62 -60 -114 t-59 -94t-53 -72.5t-55 -60t-50 -46t-54 -40t-51 -32.5t-56 -33q-142 -459 -342 -459q-55 0 -86 31.5t-31 83.5zM23 -403q0 -37 20 -37q25 0 51 29.5t46 71.5t36.5 85t25.5 71.5t9 30.5q-62 -34 -125 -110t-63 -141zM119 170q0 -84 28 -84q59 0 142 117q38 56 82.5 171 t92.5 268.5t50 158.5q-19 22 -51 22q-81 0 -164 -120.5t-131.5 -272.5t-48.5 -260z" />
<glyph unicode="h" horiz-adv-x="755" d="M-104 0l489 1538h154l-250 -795q52 73 124.5 119.5t137.5 46.5q54 0 80 -40t26 -103q0 -80 -42 -219t-84 -265.5t-42 -175.5q0 -16 6.5 -27t16.5 -11q42 0 130 131t165 286q25 12 48 2t28 -32q-214 -461 -394 -461q-61 0 -100 48.5t-39 125.5q0 67 41 193.5t82 246 t41 168.5q0 31 -25 31q-32 0 -78.5 -41t-91.5 -107q-101 -150 -167 -350l-99 -309h-157z" />
<glyph unicode="i" horiz-adv-x="362" d="M-31 145q0 97 97 398l114 362h158l-199 -631q-43 -131 -43 -168q0 -38 23 -38q45 0 133.5 132t161.5 285q25 11 47 1.5t28 -31.5q-33 -67 -62 -122t-71 -121.5t-81 -111t-85.5 -75.5t-89.5 -31q-57 0 -94 41t-37 110zM223 1180q0 44 36 79t87 35q43 0 70.5 -26t27.5 -66 q0 -47 -35.5 -82t-86.5 -35q-41 0 -70 27t-29 68z" />
<glyph unicode="j" horiz-adv-x="370" d="M-412 -381q0 35 14 72t45.5 80.5t91.5 90.5t144 91l301 952h156l-262 -842q75 48 118 86t99 118.5t127 217.5q25 12 48 2t28 -32q-58 -119 -110 -199.5t-111.5 -134.5t-96 -78t-112.5 -66q-17 -9 -25 -14q-37 -130 -81 -223t-88 -142.5t-84.5 -71.5t-82.5 -22 q-58 0 -88.5 31t-30.5 84zM-340 -403q0 -37 25 -37q24 0 49.5 29.5t46 71.5t37.5 85t26 71.5t9 30.5q-65 -33 -129 -109.5t-64 -141.5zM231 1180q0 45 35 79.5t88 34.5q41 0 69 -26t28 -66q0 -47 -35.5 -82t-87.5 -35q-43 0 -70 27t-27 68z" />
<glyph unicode="k" horiz-adv-x="737" d="M-102 0l485 1538h158l-234 -739q50 54 113.5 83t114.5 29q68 0 108.5 -41t40.5 -104q0 -132 -115 -240t-290 -155q9 -50 23 -96.5t34 -89.5t47 -69t57 -26q152 0 348 395q23 12 46.5 2t29.5 -32q-29 -57 -48.5 -95t-50.5 -91t-56.5 -88t-61 -73.5t-69 -61t-75 -37.5 t-85.5 -15q-50 0 -92 26.5t-68.5 65t-46.5 90.5t-29.5 93.5t-15.5 82.5l-111 -352h-157zM190 426q66 6 131.5 42t111.5 85t75 104t29 99q0 61 -45 61q-51 0 -103.5 -45t-92 -112t-66 -127t-40.5 -107z" />
<glyph unicode="l" horiz-adv-x="362" d="M-31 145q0 97 97 398l315 995h158l-400 -1264q-43 -131 -43 -168q0 -38 23 -38q45 0 133.5 132t161.5 285q25 11 47 1.5t28 -31.5q-34 -69 -61.5 -122t-70 -121t-81 -112t-85.5 -75t-91 -31q-57 0 -94 41t-37 110z" />
<glyph unicode="m" horiz-adv-x="1122" d="M-104 0l288 905h156l-51 -162q54 73 125.5 119.5t136.5 46.5q54 0 80 -40t26 -103q0 -29 -2 -45q63 87 140.5 137.5t140.5 50.5q54 0 80 -40t26 -103q0 -80 -41 -217.5t-82.5 -264t-41.5 -178.5q0 -38 18 -38q24 0 58 37t76 109t72 128.5t73 142.5q23 12 47.5 2t27.5 -32 q-28 -61 -47.5 -101.5t-51.5 -101t-61 -100.5t-64.5 -79.5t-74.5 -59t-78 -19.5q-59 0 -97 48.5t-38 125.5q0 71 41 198t82 242t41 158q0 41 -29 41q-31 0 -78 -42.5t-89 -105.5q-105 -158 -166 -350l-101 -309h-157l145 463q10 31 29.5 89.5t30 91t19.5 69.5t9 57 q0 37 -25 37q-32 0 -79.5 -41t-90.5 -107q-98 -147 -165 -350l-101 -309h-157z" />
<glyph unicode="n" horiz-adv-x="735" d="M-104 0l288 905h154l-49 -162q52 73 124.5 119.5t137.5 46.5q53 0 79.5 -40t26.5 -103q0 -80 -42 -218t-84 -264.5t-42 -177.5q0 -38 23 -38q41 0 118 125.5t156 291.5q23 12 46.5 2t29.5 -32q-96 -199 -144 -274q-119 -187 -233 -187q-58 0 -96.5 48.5t-38.5 125.5 q0 65 41 193.5t82 247t41 161.5q0 22 -6 29.5t-23 7.5q-29 0 -76 -42t-90 -106q-99 -145 -167 -350l-99 -309h-157z" />
<glyph unicode="o" horiz-adv-x="708" d="M-23 256q0 133 69.5 269t152.5 196q35 70 100.5 129t144.5 59q86 0 133.5 -67t47.5 -176q0 -104 -44.5 -235t-117.5 -236q76 13 158.5 95.5t138.5 194.5q25 12 48 2t28 -32q-46 -94 -101.5 -162t-113 -104t-111 -52t-107.5 -16q-117 -127 -241 -127q-90 0 -137.5 70 t-47.5 192zM111 217q0 -66 15.5 -107.5t43.5 -41.5q63 0 119 88q-63 32 -101 108q-36 70 -36 174v17q-41 -113 -41 -238zM231 467q0 -185 103 -240q56 110 95.5 254.5t39.5 227.5q0 52 -16.5 80t-44.5 28q-41 0 -82.5 -53t-68 -135t-26.5 -162z" />
<glyph unicode="p" horiz-adv-x="708" d="M-268 -514l452 1419h156l-31 -100q79 104 183 104q71 0 103 -53.5t32 -142.5q0 -190 -88 -379.5t-215 -265.5q59 13 109 36t106.5 68t112 123.5t108.5 189.5q25 12 48 2t28 -32q-50 -107 -103.5 -187.5t-120 -144t-148 -96.5t-175.5 -33q-58 0 -109 13t-75.5 26t-30.5 22 l-180 -569h-162zM96 125q24 -12 39 -12q64 0 129 68t111 166t75 206t29 190q0 74 -35 74q-53 0 -126 -105t-121 -261z" />
<glyph unicode="q" horiz-adv-x="735" d="M-16 248q0 86 31 196.5t84 215.5t137.5 177t179.5 72q77 0 116 -53l15 49h158l-318 -1007q29 40 131.5 174t163.5 226.5t104 186.5q25 12 48 2t28 -32q-49 -104 -119 -211t-138 -194.5t-134.5 -176t-125 -188.5t-93.5 -199h-152l179 569q-66 -61 -138 -61q-77 0 -117 67 t-40 187zM121 172q0 -104 43 -104q15 0 33.5 11t43 37t55 80t60.5 130q39 98 97.5 280.5t62.5 194.5q-16 22 -57 22q-81 0 -162 -112t-128.5 -263.5t-47.5 -275.5z" />
<glyph unicode="r" horiz-adv-x="569" d="M51 485q75 162 133 351q-57 50 -57 122q0 39 20 60.5t46 21.5q39 0 65 -46q18 -33 19 -85q0 -20 -3 -43q183 -105 183 -258q0 -54 -67.5 -254t-67.5 -248q0 -38 24 -38q53 0 258 386q12 21 17 31q25 12 47.5 2t27.5 -32q-39 -79 -70 -137t-72.5 -123t-78 -106t-80 -68 t-84.5 -27q-45 0 -79.5 42.5t-34.5 119.5q0 67 29.5 166.5t59 188t29.5 130.5q0 76 -61 145q-54 -178 -127 -331q-23 -12 -47 -2t-29 32z" />
<glyph unicode="s" horiz-adv-x="622" d="M35 139l47 60q14 -46 42.5 -77.5t59.5 -31.5q54 0 92.5 74t38.5 186q0 66 -11 214q-8 108 -8 154q0 17 1 25q-27 -30 -56.5 -77t-49.5 -85t-53 -104q-4 -7 -6.5 -12t-4.5 -10q-23 -12 -47 -2t-29 32q47 99 93 177.5t102.5 152.5t121 118.5t132.5 53.5l26 -86 q-123 -8 -123 -129q-1 -52 37 -211q33 -140 34 -225q0 -11 -1 -21q-6 -88 -48.5 -158t-90.5 -89q155 27 340 417q25 12 48 2t28 -32q-43 -93 -77 -157t-78 -125.5t-88.5 -98t-101.5 -58.5t-124 -22q-58 0 -104.5 15.5t-74.5 40.5t-44 47t-23 42z" />
<glyph unicode="t" horiz-adv-x="446" d="M-4 145q0 91 74 314q-16 13 -19 26l76 158l53 174h-57l29 88h57l67 223h158l-67 -223h65l-29 -88h-65l-172 -543q-39 -119 -39 -168q0 -22 4 -30t14 -8q66 0 169.5 124t183.5 293q25 12 47.5 2t27.5 -32q-59 -122 -126.5 -221.5t-152.5 -169.5t-163 -70q-60 0 -97.5 41 t-37.5 110z" />
<glyph unicode="u" horiz-adv-x="759" d="M6 240q0 112 47 262l127 403h158l-98 -307q-2 -6 -15 -45.5t-17.5 -54.5t-16.5 -54.5t-17.5 -61.5l-14.5 -58t-13 -61t-7.5 -54t-3.5 -53q0 -45 10.5 -66.5t24.5 -21.5q55 0 133 118q16 23 34 59.5t34 74t35 89t32 90.5t30.5 94t26 83t22 73.5t15.5 51.5l33 104h158 q-10 -31 -49 -152t-63.5 -199.5t-55.5 -182t-47 -171t-16 -94.5q0 -38 22 -38q43 0 131 131t166 286q23 12 48 2t28 -32q-38 -83 -78 -154.5t-92 -145.5t-109.5 -117.5t-111.5 -43.5q-55 0 -90.5 36.5t-43.5 94.5q-107 -131 -204 -131q-65 0 -108.5 67t-43.5 179z" />
<glyph unicode="v" horiz-adv-x="720" d="M51 485q37 85 53 136l-12 284h150l20 -678q35 69 82.5 149t81.5 134.5t37 60.5q-6 69 -6 72q0 88 17 166t51 128t77 50q28 0 48 -30.5t20 -82.5q0 -75 -32.5 -164t-86.5 -173q14 -72 40 -137.5t56 -65.5q16 0 31.5 9.5t31 31.5t23.5 35t23 43l16 32q25 12 48 2t28 -32 q-21 -38 -33.5 -58.5t-41 -58.5t-61.5 -57t-69 -19q-99 0 -154 178q-9 -13 -57.5 -90t-115 -183.5t-101.5 -166.5h-84l-18 451q-20 -5 -39 5t-23 29z" />
<glyph unicode="w" horiz-adv-x="1118" d="M51 485q36 84 53 136l-8 284h150l18 -606l285 606h94l19 -678q67 128 200 344q0 12 -2 37t-2 39q0 135 39 237.5t102 102.5q30 0 48 -29t18 -81q0 -150 -113 -340q9 -64 37.5 -133.5t57.5 -69.5q15 0 30 10.5t28.5 30t23.5 36.5t22.5 41.5t17.5 32.5q23 12 47 2t29 -32 q-14 -29 -31 -57t-43.5 -61.5t-60.5 -54t-70 -20.5q-39 0 -70 28t-48 63.5t-33 86.5q-150 -228 -277 -440h-82l-26 594l-285 -594h-88l-18 451q-20 -5 -39 5t-23 29z" />
<glyph unicode="x" horiz-adv-x="823" d="M51 485q20 40 51.5 106.5t49 103t45 84t50 71.5t52.5 41.5t63 17.5q38 0 65 -22t44 -64t26 -89.5t15 -112.5q95 156 160.5 222t124.5 66q41 0 67 -22l-53 -152q-14 37 -45 37q-17 0 -35 -10t-40 -34t-39 -45t-45 -64.5t-43 -68.5t-48 -79q0 -22 1 -66q1 -86 3 -129 t8.5 -98.5t20.5 -78.5t37 -23q34 0 88.5 68.5t103.5 155t96 185.5q25 11 47.5 1.5t28.5 -31.5q-33 -69 -61.5 -122.5t-71.5 -120.5t-82 -111.5t-87 -75.5t-93 -31q-76 0 -117.5 63t-60.5 176q-3 -5 -10 -16q-23 -38 -37 -59t-41.5 -57t-49 -55.5t-51 -35.5t-57.5 -16 q-19 0 -41.5 7t-32.5 15l47 125q18 -24 48 -24q37 0 95 69t120 185q-2 53 -2 188t-6.5 196.5t-26.5 61.5q-12 0 -27.5 -17.5t-35.5 -55t-38.5 -76.5t-48.5 -102t-55 -111q-23 -12 -47 -2t-29 32z" />
<glyph unicode="y" horiz-adv-x="745" d="M-39 -379q0 76 69 162t228 170l39 119q-78 -60 -139 -60q-65 0 -108.5 66.5t-43.5 177.5q0 115 72 331q4 13 6 19l96 299h158l-98 -307q-78 -237 -95 -335q-10 -54 -10 -93q0 -45 12.5 -64.5t28.5 -19.5q48 0 127 117q31 45 69.5 138.5t62.5 164t59 181t36 114.5l31 104 h158l-264 -842q75 49 117 85.5t99 118t126 218.5q25 12 47.5 2t27.5 -32q-59 -119 -110.5 -199.5t-111 -135t-93 -77t-111.5 -65.5q-17 -10 -26 -15q-39 -130 -83.5 -223t-88.5 -142.5t-84.5 -71.5t-81.5 -22q-58 0 -89.5 32t-31.5 85zM35 -403q0 -37 26 -37q76 0 166 288 q-61 -30 -126.5 -108t-65.5 -143z" />
<glyph unicode="z" horiz-adv-x="665" d="M-100 -381q0 50 19.5 93.5t62 83.5t83.5 69.5t109 71.5q-3 71 -41 116t-82 45l19 60q63 10 117.5 45.5t91 86t65 108t44.5 116t24 105t8 79.5q0 58 -20 92.5t-50 34.5q-26 0 -49 -19.5t-43.5 -58.5t-38 -80t-43.5 -103.5t-49 -108.5q-23 -12 -47 -2t-29 32 q17 37 44.5 101t44 101.5t44 85t52 73.5t61 44.5t78.5 18.5q88 0 143 -70t55 -192q0 -111 -47 -223t-138 -196t-204 -103q24 -12 54 -40t51 -69q138 77 248.5 199t179.5 270q25 11 47.5 1.5t28.5 -31.5q-78 -159 -206 -299t-278 -219q0 -8 1 -24.5t1 -25.5 q0 -155 -93.5 -269t-199.5 -114q-58 0 -88 31t-30 84zM-27 -403q0 -37 23 -37q33 0 69 46t62 112.5t39 134.5q-93 -64 -143 -125.5t-50 -130.5z" />
<glyph unicode="{" horiz-adv-x="622" d="M199 729l34 96q47 0 84.5 25t63.5 68t48 98t43.5 116t46 122t58.5 116t77 98t106.5 68t142.5 25l-31 -97q-52 0 -92.5 -31t-67 -82.5t-49.5 -115t-48.5 -132.5t-56 -131t-79 -115t-110.5 -79q65 -46 65 -149q0 -76 -43 -232.5t-43 -206.5q0 -100 98 -100l-32 -96 q-112 0 -156.5 47.5t-44.5 136.5q0 75 41 234t41 213q0 104 -96 104z" />
<glyph unicode="|" horiz-adv-x="507" d="M53 -6l494 1567h131l-494 -1567h-131z" />
<glyph unicode="}" horiz-adv-x="649" d="M-39 -6l33 96q52 0 92 31t66.5 83t49.5 115.5t48.5 133t55.5 131.5t79 115t111 79q-66 44 -66 150q0 74 42 230t42 206q0 49 -21.5 74.5t-72.5 25.5l31 97q110 0 154 -47t44 -136q0 -76 -39 -235t-39 -213q0 -51 20.5 -78t70.5 -27l-27 -96q-48 0 -86 -25t-64 -67.5 t-49 -98t-44.5 -116.5t-46 -121.5t-58.5 -116t-77 -98t-106.5 -67.5t-142.5 -25z" />
<glyph unicode="~" horiz-adv-x="942" d="M0 475q25 69 87.5 121.5t166.5 52.5q71 0 223 -47t228 -47q34 0 61.5 10.5t44 27.5t25.5 30.5t14 25.5l70 -41q-24 -73 -85.5 -124.5t-164.5 -51.5q-72 0 -223.5 48t-227.5 48q-109 0 -149 -96z" />
<glyph unicode="&#xa1;" horiz-adv-x="630" d="M92 -6l432 1266h115l-369 -1266h-178zM555 1417q0 43 32 84t83 41q27 0 41 -17.5t14 -45.5q0 -42 -33 -80.5t-78 -38.5q-59 0 -59 57z" />
<glyph unicode="&#xa2;" horiz-adv-x="661" d="M18 283q0 144 54 282t147.5 231.5t200.5 108.5l35 109h110l-39 -119q88 -47 88 -188q0 -70 -18 -144l-162 -57q16 38 30.5 101.5t14.5 121.5q0 100 -41 100q-31 0 -75 -51t-83.5 -129.5t-67.5 -185.5t-28 -207q0 -51 7.5 -90.5t29 -68.5t55.5 -29q29 0 54.5 20t42.5 51 t27.5 58t15.5 51l114 -23q-9 -25 -21 -50.5t-36.5 -60.5t-54 -60.5t-75 -43.5t-97.5 -16l-31 -100h-111l41 126q-57 31 -92 98t-35 165z" />
<glyph unicode="&#xa3;" horiz-adv-x="782" d="M-78 63q0 39 36.5 70t98.5 31q38 0 62 -6q16 32 39.5 120.5t29.5 108.5h-165l20 74h166q32 102 67 177.5t81.5 139.5t107.5 97.5t135 33.5q71 0 114.5 -39t43.5 -88q0 -45 -29 -76t-76 -42l-51 90q23 0 35 14t12 31q0 41 -47 41q-60 0 -110.5 -86t-116.5 -293h172 l-23 -74h-170q-58 -200 -135 -266q84 -39 157.5 -48.5t141 17t113.5 92.5l59 -104q-35 -33 -101 -60.5t-155 -27.5q-132 0 -270 69q-73 -69 -148 -69q-45 0 -69.5 21t-24.5 52z" />
<glyph unicode="&#xa5;" horiz-adv-x="935" d="M18 668q0 94 73.5 169.5t197.5 75.5q95 0 162.5 -49.5t96.5 -130t21 -178.5q183 332 461 354l-41 -131q-93 -9 -181 -72.5t-159 -179.5h144l-27 -69h-154q-26 -44 -34 -70h165l-20 -72h-172l-100 -315h-158l100 315h-170l23 72h170l18 70h-166l21 69h157 q10 85 -2.5 154.5t-53 114.5t-105.5 45q-70 0 -114 -46t-44 -100q0 -46 31 -74t92 -22l-57 -100q-85 0 -130 49t-45 121z" />
<glyph unicode="&#xa7;" horiz-adv-x="743" d="M100 135q0 47 32 86.5t83 52.5l49 -75q-26 -4 -39.5 -25t-13.5 -45q0 -25 21.5 -43t56.5 -18q43 0 75.5 30t32.5 84q0 42 -23 86t-55.5 83t-64.5 79.5t-55 90t-23 100.5q0 80 43 134t113 74q-27 52 -27 105q0 97 64.5 159t156.5 62q71 0 114.5 -39.5t43.5 -87.5 q0 -44 -31 -76t-80 -43l-49 70q54 6 54 55q0 20 -14 35.5t-40 15.5q-42 0 -73 -32.5t-31 -77.5q0 -33 24 -71.5t59 -76.5t69.5 -80.5t58.5 -98.5t24 -116q0 -155 -139 -239q10 -29 10 -64q0 -102 -70.5 -168.5t-170.5 -66.5q-94 0 -139.5 43t-45.5 98zM289 659 q0 -38 32.5 -83.5t83.5 -104t76 -102.5q49 52 49 125q0 46 -23.5 89.5t-72 102.5t-65.5 84q-35 -11 -57.5 -40.5t-22.5 -70.5z" />
<glyph unicode="&#xa8;" horiz-adv-x="1576" d="M737 1061q0 43 33.5 83t81.5 40q55 0 55 -60q0 -42 -30.5 -82.5t-81.5 -40.5q-28 0 -43 17t-15 43zM991 1061q0 44 31.5 83.5t77.5 39.5q57 0 57 -60q0 -41 -30.5 -82t-79.5 -41q-56 0 -56 60z" />
<glyph unicode="&#xa9;" horiz-adv-x="862" d="M111 795q0 138 69.5 265t184.5 205t239 78q141 0 230.5 -99t89.5 -251q0 -136 -70 -263.5t-185.5 -206.5t-240.5 -79q-140 0 -228.5 100t-88.5 251zM174 807q0 -138 75.5 -230t192.5 -92q109 0 207 75.5t153.5 190t55.5 232.5q0 139 -74 229.5t-192 90.5 q-105 0 -202.5 -71t-156.5 -186t-59 -239zM324 799q0 96 37 186.5t101.5 148.5t137.5 58q43 0 69.5 -30t26.5 -93q0 -44 -8 -90l-104 -43q30 86 30 143q0 62 -24 62q-28 0 -66 -52.5t-67 -139.5t-29 -171q0 -114 57 -114q29 0 53.5 33.5t34.5 78.5l74 -16q-27 -68 -72 -107 t-102 -39q-65 0 -107 47t-42 138z" />
<glyph unicode="&#xaa;" horiz-adv-x="770" d="M45 520q0 78 30.5 179t81.5 196t130.5 160t165.5 65q68 0 106 -49l12 45h158q-13 -43 -55.5 -176.5t-71 -225t-53.5 -186.5t-25 -125q0 -34 19 -34q25 0 71.5 54t96.5 136q24 11 49.5 -1.5t25.5 -37.5q-64 -107 -127.5 -167t-138.5 -60q-50 0 -87.5 34.5t-43.5 86.5 q-95 -121 -186 -121q-68 0 -113 63t-45 164zM186 461q0 -92 41 -92q13 0 29.5 9.5t39.5 32t50.5 71t54.5 116.5t55.5 152t53.5 165t31 99q-22 18 -52 18q-75 0 -147 -97t-114 -229.5t-42 -244.5z" />
<glyph unicode="&#xab;" horiz-adv-x="946" d="M182 571l428 351l68 -109l-367 -262l187 -236l-101 -79zM457 571l430 351l65 -109l-364 -262l184 -236l-100 -79z" />
<glyph unicode="&#xad;" horiz-adv-x="788" d="M215 420l31 104h420l-31 -104h-420z" />
<glyph unicode="&#xae;" horiz-adv-x="841" d="M111 795q0 138 69.5 265t184.5 205t239 78q141 0 230.5 -99t89.5 -251q0 -136 -70 -263.5t-185.5 -206.5t-240.5 -79q-140 0 -228.5 100t-88.5 251zM174 807q0 -138 75.5 -230t192.5 -92q109 0 207 75.5t153.5 190t55.5 232.5q0 139 -74 229.5t-192 90.5 q-105 0 -202.5 -71t-156.5 -186t-59 -239zM289 629l180 557h88q70 0 118 -27t48 -92q0 -95 -70.5 -163.5t-167.5 -82.5q22 -20 49 -59.5t49.5 -59.5t51.5 -16l-31 -80q-26 0 -47.5 12t-38.5 35.5t-28 44.5t-25.5 53.5t-22.5 47.5l-57 -170h-96zM461 866q69 7 114.5 67.5 t45.5 135.5q0 72 -72 72z" />
<glyph unicode="&#xaf;" horiz-adv-x="1576" />
<glyph unicode="&#xb0;" horiz-adv-x="393" d="M39 776q0 97 72.5 178.5t169.5 81.5q67 0 107 -44t40 -105q0 -62 -30.5 -124t-88 -105.5t-125.5 -43.5q-65 0 -105 49.5t-40 112.5zM131 766q0 -38 16.5 -64t45.5 -26q57 0 99 67.5t42 145.5q0 38 -15.5 64t-44.5 26q-56 0 -99.5 -63t-43.5 -150z" />
<glyph unicode="&#xb4;" horiz-adv-x="1576" d="M840 1051l217 229l90 -98l-248 -199z" />
<glyph unicode="&#xb6;" horiz-adv-x="1155" d="M154 948q0 127 70.5 239t184 188t255.5 119.5t286 43.5l-551 -1702h-166l246 760q-134 18 -229.5 117.5t-95.5 234.5zM580 -164l548 1702h164l-549 -1702h-163z" />
<glyph unicode="&#xb8;" horiz-adv-x="1576" d="M477 -346l84 72q5 -27 21.5 -46.5t44.5 -19.5q51 0 86 46t35 91q0 66 -56 66q-52 0 -106 -62l-39 31l61 188h80l-41 -122q35 34 84 34q51 0 80 -31.5t29 -80.5q0 -96 -70 -165t-158 -69q-94 0 -135 68z" />
<glyph unicode="&#xba;" horiz-adv-x="778" d="M63 528q0 121 66 243.5t145 180.5q33 62 95.5 115t136.5 53q75 0 121.5 -60t46.5 -161q0 -95 -36.5 -207t-100.5 -203q93 11 188 148q66 6 66 -53q-70 -94 -152.5 -136t-163.5 -42q-49 -51 -111.5 -82t-123.5 -31q-82 0 -129.5 63.5t-47.5 171.5zM197 494q0 -125 57 -125 q51 0 104 69q-116 68 -137 238q-24 -105 -24 -182zM309 700q0 -59 26.5 -110.5t65.5 -75.5q53 98 87 223t34 203q0 84 -45 84q-37 0 -76.5 -50t-65.5 -126.5t-26 -147.5z" />
<glyph unicode="&#xbb;" horiz-adv-x="946" d="M152 344l366 262l-188 236l102 80l213 -336l-428 -350zM426 344l365 262l-185 236l101 80l215 -336l-430 -350z" />
<glyph unicode="&#xbc;" horiz-adv-x="864" d="M31 -10l559 919h102l-557 -919h-104zM78 369l133 417q-51 -51 -98 -67l26 72q32 24 59.5 51t39.5 42t12 17h92l-166 -532h-98zM358 213l297 324h105l-94 -304h106l-18 -63h-107l-57 -172h-105l58 172h-166zM467 233h98l53 173z" />
<glyph unicode="&#xbd;" horiz-adv-x="839" d="M31 -10l559 919h102l-557 -919h-104zM78 369l133 417q-51 -51 -98 -67l26 72q32 24 59.5 51t39.5 42t12 17h92l-166 -532h-98zM397 41q19 59 55 109t72 82t69.5 62t55 62.5t21.5 69.5q0 24 -10.5 38.5t-28.5 14.5q-49 0 -70 -96l-88 18q7 49 50.5 92.5t111.5 43.5 q58 0 94.5 -34.5t36.5 -88.5q0 -44 -21.5 -82t-56 -67.5t-70.5 -57t-73 -64t-56 -75.5l218 18l-29 -88h-262z" />
<glyph unicode="&#xbe;" horiz-adv-x="968" d="M27 506l90 49q-4 -10 -4 -27q0 -44 16.5 -73t50.5 -29q35 0 59.5 29.5t24.5 72.5q0 41 -28.5 63.5t-71.5 22.5h-17l27 70q51 0 88 34t37 81q0 20 -10 32.5t-27 12.5q-29 0 -46 -28.5t-23 -63.5l-89 20q11 54 52 95.5t108 41.5q57 0 93 -32t36 -86q0 -58 -42 -93.5 t-109 -48.5q45 0 82.5 -34.5t37.5 -86.5q0 -67 -56 -114t-126 -47q-71 0 -112 39t-41 100zM135 -10l557 919h105l-557 -919h-105zM463 213l297 324h104l-94 -304h107l-19 -63h-108l-58 -172h-102l57 172h-166zM569 233h101l53 173z" />
<glyph unicode="&#xbf;" horiz-adv-x="856" d="M8 303q0 87 38 171t98.5 152t134 131.5t147 117.5t134 101.5t98.5 92.5t38 82q0 29 -22 29q-15 0 -33 -16.5t-25 -41.5q-7 12 -21.5 31.5t-25 33t-12.5 15.5q13 35 43.5 55.5t63.5 20.5q47 0 81.5 -34.5t34.5 -94.5q0 -57 -33.5 -115.5t-87.5 -111t-119 -107.5t-130 -116 t-119 -125t-87.5 -144.5t-33.5 -165.5q0 -86 47 -140t129 -54q104 0 187 100t83 227q0 125 -96 166l80 96q73 -21 112.5 -85t39.5 -154q0 -107 -57.5 -205t-159 -159.5t-218.5 -61.5q-137 0 -223 82.5t-86 226.5zM682 1417q0 43 30.5 84t80.5 41q31 0 46 -17.5t15 -45.5 q0 -42 -34 -80.5t-81 -38.5q-57 0 -57 57z" />
<glyph unicode="&#xc0;" horiz-adv-x="1640" d="M-61 117q0 110 42.5 216.5t110.5 186.5t159.5 129t184.5 49q82 0 126 -49.5t44 -124.5q0 -52 -18 -98l-178 -39q27 36 44 80.5t17 77.5q0 63 -57 63q-53 0 -114.5 -42.5t-112.5 -110t-85 -158.5t-34 -180q0 -99 44 -159t119 -60q179 0 471.5 397.5t727.5 1242.5h141 l-158 -1702h-170l60 551h-381q-73 -111 -144.5 -199.5t-129.5 -146.5t-116 -100t-100.5 -64t-87 -34.5t-70.5 -15.5t-57 -3q-128 0 -203 79t-75 214zM983 475h330l92 823q-240 -522 -422 -823zM1257 1833l93 98l217 -229l-60 -68z" />
<glyph unicode="&#xc1;" horiz-adv-x="1640" d="M-61 117q0 110 42.5 216.5t110.5 186.5t159.5 129t184.5 49q82 0 126 -49.5t44 -124.5q0 -52 -18 -98l-178 -39q27 36 44 80.5t17 77.5q0 63 -57 63q-53 0 -114.5 -42.5t-112.5 -110t-85 -158.5t-34 -180q0 -99 44 -159t119 -60q179 0 471.5 397.5t727.5 1242.5h141 l-158 -1702h-170l60 551h-381q-73 -111 -144.5 -199.5t-129.5 -146.5t-116 -100t-100.5 -64t-87 -34.5t-70.5 -15.5t-57 -3q-128 0 -203 79t-75 214zM983 475h330l92 823q-240 -522 -422 -823zM1444 1702l217 229l90 -98l-248 -199z" />
<glyph unicode="&#xc2;" horiz-adv-x="1640" d="M-61 117q0 110 42.5 216.5t110.5 186.5t159.5 129t184.5 49q82 0 126 -49.5t44 -124.5q0 -52 -18 -98l-178 -39q27 36 44 80.5t17 77.5q0 63 -57 63q-53 0 -114.5 -42.5t-112.5 -110t-85 -158.5t-34 -180q0 -99 44 -159t119 -60q179 0 471.5 397.5t727.5 1242.5h141 l-158 -1702h-170l60 551h-381q-73 -111 -144.5 -199.5t-129.5 -146.5t-116 -100t-100.5 -64t-87 -34.5t-70.5 -15.5t-57 -3q-128 0 -203 79t-75 214zM983 475h330l92 823q-240 -522 -422 -823zM1313 1702l260 194l153 -208l-98 -70l-76 166l-168 -168z" />
<glyph unicode="&#xc3;" horiz-adv-x="1640" d="M-61 117q0 110 42.5 216.5t110.5 186.5t159.5 129t184.5 49q82 0 126 -49.5t44 -124.5q0 -52 -18 -98l-178 -39q27 36 44 80.5t17 77.5q0 63 -57 63q-53 0 -114.5 -42.5t-112.5 -110t-85 -158.5t-34 -180q0 -99 44 -159t119 -60q179 0 471.5 397.5t727.5 1242.5h141 l-158 -1702h-170l60 551h-381q-73 -111 -144.5 -199.5t-129.5 -146.5t-116 -100t-100.5 -64t-87 -34.5t-70.5 -15.5t-57 -3q-128 0 -203 79t-75 214zM983 475h330l92 823q-240 -522 -422 -823zM1249 1675q15 44 55 78.5t105 34.5q49 0 131 -21.5t129 -21.5q39 0 60.5 13.5 t25.5 29.5l45 -27q-39 -110 -160 -110q-51 0 -131.5 29.5t-124.5 29.5q-38 0 -60.5 -19.5t-29.5 -39.5z" />
<glyph unicode="&#xc4;" horiz-adv-x="1640" d="M-61 117q0 110 42.5 216.5t110.5 186.5t159.5 129t184.5 49q82 0 126 -49.5t44 -124.5q0 -52 -18 -98l-178 -39q27 36 44 80.5t17 77.5q0 63 -57 63q-53 0 -114.5 -42.5t-112.5 -110t-85 -158.5t-34 -180q0 -99 44 -159t119 -60q179 0 471.5 397.5t727.5 1242.5h141 l-158 -1702h-170l60 551h-381q-73 -111 -144.5 -199.5t-129.5 -146.5t-116 -100t-100.5 -64t-87 -34.5t-70.5 -15.5t-57 -3q-128 0 -203 79t-75 214zM983 475h330l92 823q-240 -522 -422 -823zM1329 1700q0 43 33.5 83t81.5 40q55 0 55 -60q0 -41 -31 -82t-82 -41 q-28 0 -42.5 17t-14.5 43zM1583 1700q0 44 31.5 83.5t77.5 39.5q57 0 57 -60q0 -41 -31 -82t-80 -41q-55 0 -55 60z" />
<glyph unicode="&#xc5;" horiz-adv-x="1644" d="M-61 117q0 110 42.5 216.5t110.5 186.5t159.5 129t184.5 49q82 0 126 -49.5t44 -124.5q0 -52 -18 -98l-178 -39q27 36 44 80.5t17 77.5q0 63 -57 63q-53 0 -114.5 -42.5t-112.5 -110t-85 -158.5t-34 -180q0 -99 44 -159t119 -60q179 0 471.5 397.5t727.5 1242.5 q-50 29 -50 107q0 86 65.5 161.5t156.5 75.5q56 0 84 -31.5t28 -83.5q0 -65 -39 -134t-104 -97l-158 -1700h-170l60 551h-381q-73 -111 -144.5 -199.5t-129.5 -146.5t-116 -100t-100.5 -64t-87 -34.5t-70.5 -15.5t-57 -3q-128 0 -203 79t-75 214zM983 475h330l92 823 q-240 -522 -422 -823zM1460 1645q0 -74 53 -74q48 0 85.5 61.5t37.5 130.5q0 31 -14 50.5t-39 19.5q-46 0 -84.5 -58t-38.5 -130z" />
<glyph unicode="&#xc6;" horiz-adv-x="2387" d="M-61 125q0 108 45.5 215.5t117.5 187.5t166 129.5t187 49.5q79 0 116 -44t37 -116q0 -58 -20 -111l-178 -43q61 84 61 162q0 63 -57 63q-86 0 -166.5 -71.5t-130 -186t-49.5 -235.5q0 -101 44 -160t119 -59q178 0 466 392.5t726 1239.5h142l-78 -860q92 81 204 125.5 t189 52.5q-27 7 -61 30.5t-68 60t-57 92t-23 116.5q0 166 117.5 281.5t294.5 115.5q136 0 208 -70.5t72 -168.5q0 -43 -16.5 -85t-42 -73.5t-47.5 -52.5t-43 -35l-100 74q63 44 95 97.5t32 104.5q0 58 -40 97t-110 39q-109 0 -185.5 -95.5t-76.5 -226.5q0 -116 70.5 -190 t179.5 -97l-25 -82q-112 5 -218.5 -31t-190.5 -104t-135.5 -174t-51.5 -231q0 -154 97 -252t255 -98q83 0 151 28.5t110 71.5t70.5 96.5t40 101t11.5 87.5q0 91 -31 140.5t-91 49.5q-82 0 -138.5 -77.5t-81.5 -186.5l-112 65q15 42 40.5 84.5t66.5 88t103 74t134 28.5 q103 0 174.5 -72t71.5 -194q0 -82 -42 -164t-112.5 -147.5t-173 -106.5t-215.5 -41q-109 0 -204 33.5t-161 95.5l-14 -117h-170l61 551h-378q-74 -111 -146.5 -199t-130 -145.5t-115.5 -99t-99 -63t-85.5 -33.5t-70 -14.5t-56.5 -2.5q-127 0 -202.5 80.5t-75.5 214.5z M975 475h334l90 823q-243 -528 -424 -823z" />
<glyph unicode="&#xc7;" horiz-adv-x="1048" d="M41 416q0 173 50.5 344t139.5 311.5t201.5 250t244.5 170t261 60.5q136 0 202 -70t66 -175q0 -83 -33.5 -163.5t-85 -139.5t-113 -107.5t-117 -76.5t-97.5 -38l-25 164q172 55 270.5 168.5t98.5 222.5q0 127 -154 127q-81 0 -167.5 -39.5t-166.5 -108.5t-152.5 -169.5 t-126 -216.5t-85 -256t-31.5 -281q0 -96 15.5 -181.5t46.5 -157.5t85 -114t124 -42q51 0 100.5 23t85 53.5t71.5 77.5t55.5 79t41.5 74l88 -105q-69 -115 -188.5 -195.5t-262.5 -80.5q-25 0 -65 4l-35 -102q35 34 84 34q51 0 79.5 -31.5t28.5 -80.5q0 -96 -69.5 -165 t-157.5 -69q-94 0 -135 68l84 72q13 -66 65 -66q51 0 86 46t35 91q0 66 -55 66q-52 0 -106 -62l-39 31l61 188q-145 53 -224 207t-79 361z" />
<glyph unicode="&#xc8;" horiz-adv-x="1103" d="M10 248q0 88 23.5 167.5t62 138.5t91 110t106 85.5t111.5 61.5t104 41.5t86 21.5q-27 7 -57.5 27.5t-61 53.5t-50 86t-19.5 114q0 158 122.5 277.5t288.5 119.5q127 0 194.5 -67.5t67.5 -163.5q0 -56 -31.5 -114.5t-60.5 -89t-55 -50.5l-105 74q68 45 102 102.5t34 112.5 q0 54 -36 88.5t-100 34.5q-108 0 -186 -96t-78 -226q0 -222 232 -264l-25 -86q-150 7 -284.5 -62.5t-220 -205t-85.5 -303.5q0 -151 89.5 -244.5t228.5 -93.5q85 0 159 38t121.5 97t74 127.5t26.5 132.5q0 82 -36 131t-91 49q-50 0 -92 -31.5t-68 -82t-39 -84t-21 -66.5 l-108 65q15 42 41.5 84t67.5 86.5t103 72.5t134 28q99 0 171.5 -65t72.5 -187q0 -90 -40.5 -175t-110.5 -150t-170.5 -104.5t-213.5 -39.5q-210 0 -339.5 124t-129.5 300zM600 1833l92 98l217 -229l-59 -68z" />
<glyph unicode="&#xc9;" horiz-adv-x="1103" d="M10 248q0 88 23.5 167.5t62 138.5t91 110t106 85.5t111.5 61.5t104 41.5t86 21.5q-27 7 -57.5 27.5t-61 53.5t-50 86t-19.5 114q0 158 122.5 277.5t288.5 119.5q127 0 194.5 -67.5t67.5 -163.5q0 -56 -31.5 -114.5t-60.5 -89t-55 -50.5l-105 74q68 45 102 102.5t34 112.5 q0 54 -36 88.5t-100 34.5q-108 0 -186 -96t-78 -226q0 -222 232 -264l-25 -86q-150 7 -284.5 -62.5t-220 -205t-85.5 -303.5q0 -151 89.5 -244.5t228.5 -93.5q85 0 159 38t121.5 97t74 127.5t26.5 132.5q0 82 -36 131t-91 49q-50 0 -92 -31.5t-68 -82t-39 -84t-21 -66.5 l-108 65q15 42 41.5 84t67.5 86.5t103 72.5t134 28q99 0 171.5 -65t72.5 -187q0 -90 -40.5 -175t-110.5 -150t-170.5 -104.5t-213.5 -39.5q-210 0 -339.5 124t-129.5 300zM797 1702l217 229l90 -98l-248 -199z" />
<glyph unicode="&#xca;" horiz-adv-x="1103" d="M10 248q0 88 23.5 167.5t62 138.5t91 110t106 85.5t111.5 61.5t104 41.5t86 21.5q-27 7 -57.5 27.5t-61 53.5t-50 86t-19.5 114q0 158 122.5 277.5t288.5 119.5q127 0 194.5 -67.5t67.5 -163.5q0 -56 -31.5 -114.5t-60.5 -89t-55 -50.5l-105 74q68 45 102 102.5t34 112.5 q0 54 -36 88.5t-100 34.5q-108 0 -186 -96t-78 -226q0 -222 232 -264l-25 -86q-150 7 -284.5 -62.5t-220 -205t-85.5 -303.5q0 -151 89.5 -244.5t228.5 -93.5q85 0 159 38t121.5 97t74 127.5t26.5 132.5q0 82 -36 131t-91 49q-50 0 -92 -31.5t-68 -82t-39 -84t-21 -66.5 l-108 65q15 42 41.5 84t67.5 86.5t103 72.5t134 28q99 0 171.5 -65t72.5 -187q0 -90 -40.5 -175t-110.5 -150t-170.5 -104.5t-213.5 -39.5q-210 0 -339.5 124t-129.5 300zM647 1702l260 194l154 -208l-98 -70l-76 166l-168 -168z" />
<glyph unicode="&#xcb;" horiz-adv-x="1103" d="M10 248q0 88 23.5 167.5t62 138.5t91 110t106 85.5t111.5 61.5t104 41.5t86 21.5q-27 7 -57.5 27.5t-61 53.5t-50 86t-19.5 114q0 158 122.5 277.5t288.5 119.5q127 0 194.5 -67.5t67.5 -163.5q0 -56 -31.5 -114.5t-60.5 -89t-55 -50.5l-105 74q68 45 102 102.5t34 112.5 q0 54 -36 88.5t-100 34.5q-108 0 -186 -96t-78 -226q0 -222 232 -264l-25 -86q-150 7 -284.5 -62.5t-220 -205t-85.5 -303.5q0 -151 89.5 -244.5t228.5 -93.5q85 0 159 38t121.5 97t74 127.5t26.5 132.5q0 82 -36 131t-91 49q-50 0 -92 -31.5t-68 -82t-39 -84t-21 -66.5 l-108 65q15 42 41.5 84t67.5 86.5t103 72.5t134 28q99 0 171.5 -65t72.5 -187q0 -90 -40.5 -175t-110.5 -150t-170.5 -104.5t-213.5 -39.5q-210 0 -339.5 124t-129.5 300zM700 1702q0 43 33.5 83t81.5 40q55 0 55 -60q0 -42 -30.5 -82.5t-81.5 -40.5q-28 0 -43 17t-15 43z M954 1702q0 44 31.5 83.5t77.5 39.5q57 0 57 -60q0 -41 -30.5 -82t-79.5 -41q-56 0 -56 60z" />
<glyph unicode="&#xcc;" horiz-adv-x="792" d="M-41 532q0 58 23 112t62.5 99.5t92 90.5t113.5 90t124 92t126 103t117.5 116.5t100.5 138.5t73 164h161l-546 -1702h-166l432 1350q-56 -76 -138 -156.5t-151.5 -140.5t-134 -122.5t-102 -126t-37.5 -126.5q0 -94 63 -94q28 0 78 31v-111q-32 -14 -86 -14q-37 0 -70.5 10 t-65 32t-50.5 64t-19 100zM633 1833l92 98l217 -229l-59 -68z" />
<glyph unicode="&#xcd;" horiz-adv-x="792" d="M-41 532q0 58 23 112t62.5 99.5t92 90.5t113.5 90t124 92t126 103t117.5 116.5t100.5 138.5t73 164h161l-546 -1702h-166l432 1350q-56 -76 -138 -156.5t-151.5 -140.5t-134 -122.5t-102 -126t-37.5 -126.5q0 -94 63 -94q28 0 78 31v-111q-32 -14 -86 -14q-37 0 -70.5 10 t-65 32t-50.5 64t-19 100zM827 1702l217 229l91 -98l-248 -199z" />
<glyph unicode="&#xce;" horiz-adv-x="792" d="M-41 532q0 58 23 112t62.5 99.5t92 90.5t113.5 90t124 92t126 103t117.5 116.5t100.5 138.5t73 164h161l-546 -1702h-166l432 1350q-56 -76 -138 -156.5t-151.5 -140.5t-134 -122.5t-102 -126t-37.5 -126.5q0 -94 63 -94q28 0 78 31v-111q-32 -14 -86 -14q-37 0 -70.5 10 t-65 32t-50.5 64t-19 100zM686 1702l260 194l154 -208l-99 -70l-75 166l-168 -168z" />
<glyph unicode="&#xcf;" horiz-adv-x="792" d="M-41 532q0 58 23 112t62.5 99.5t92 90.5t113.5 90t124 92t126 103t117.5 116.5t100.5 138.5t73 164h161l-546 -1702h-166l432 1350q-56 -76 -138 -156.5t-151.5 -140.5t-134 -122.5t-102 -126t-37.5 -126.5q0 -94 63 -94q28 0 78 31v-111q-32 -14 -86 -14q-37 0 -70.5 10 t-65 32t-50.5 64t-19 100zM721 1700q0 43 33.5 83t81.5 40q55 0 55 -60q0 -41 -31 -82t-82 -41q-28 0 -42.5 17t-14.5 43zM975 1700q0 44 31 83.5t77 39.5q58 0 58 -60q0 -41 -31 -82t-80 -41q-55 0 -55 60z" />
<glyph unicode="&#xd1;" horiz-adv-x="1726" d="M-61 121q0 108 42.5 214.5t110.5 186t159.5 129t184.5 49.5q82 0 125 -50t43 -126q0 -43 -16 -96l-178 -41q61 84 61 162q0 28 -14.5 45.5t-42.5 17.5q-53 0 -115 -42.5t-114 -110t-87 -158.5t-35 -180q0 -101 43.5 -160t118.5 -59q72 0 138 38.5t133 124.5t133 213 t138.5 313t148 416t163.5 531h99l186 -1274l395 1274h131l-549 -1702h-90l-188 1335q-22 -105 -46 -203t-56 -206.5t-66.5 -204t-78.5 -192t-91 -175.5t-104 -148.5t-118.5 -116.5t-134 -74t-149.5 -27q-129 0 -204.5 81t-75.5 216zM1221 1675q15 44 54.5 78.5t104.5 34.5 q50 0 132 -21.5t128 -21.5q39 0 60.5 13.5t25.5 29.5l46 -27q-39 -110 -160 -110q-51 0 -131.5 29.5t-124.5 29.5q-38 0 -60.5 -19.5t-29.5 -39.5z" />
<glyph unicode="&#xd2;" horiz-adv-x="1497" d="M10 682q-2 39 4.5 75.5t12.5 53t8 18.5l141 35q-8 -33 -12.5 -64t-9 -81.5t3.5 -94.5t25 -88.5t55 -79.5t94 -53q7 151 53.5 314t126.5 310.5t180.5 266t225 188.5t249.5 70q62 0 111.5 -18.5t81.5 -49t54 -72.5t31 -86.5t9 -92.5q0 -113 -29 -215q23 -82 23 -182 q-1 -134 -40.5 -278.5t-111 -274t-162.5 -233.5t-203 -165t-224 -61q-163 0 -263 130.5t-112 354.5q-70 15 -126.5 46t-91.5 68.5t-59 83.5t-34 88.5t-11 86.5zM506 293q0 -185 57.5 -284t153.5 -99q106 0 221 115.5t208.5 305.5t145.5 410q-135 -196 -347.5 -318.5 t-438.5 -129.5zM512 387q114 10 224 59.5t196 123t159 165t121.5 186t75.5 184.5t27 163q0 198 -150 198q-65 0 -138 -42.5t-141.5 -115.5t-133 -176.5t-114 -221t-83.5 -254t-43 -269.5zM952 1833l92 98l218 -229l-60 -68z" />
<glyph unicode="&#xd3;" horiz-adv-x="1497" d="M10 682q-2 39 4.5 75.5t12.5 53t8 18.5l141 35q-8 -33 -12.5 -64t-9 -81.5t3.5 -94.5t25 -88.5t55 -79.5t94 -53q7 151 53.5 314t126.5 310.5t180.5 266t225 188.5t249.5 70q62 0 111.5 -18.5t81.5 -49t54 -72.5t31 -86.5t9 -92.5q0 -113 -29 -215q23 -82 23 -182 q-1 -134 -40.5 -278.5t-111 -274t-162.5 -233.5t-203 -165t-224 -61q-163 0 -263 130.5t-112 354.5q-70 15 -126.5 46t-91.5 68.5t-59 83.5t-34 88.5t-11 86.5zM506 293q0 -185 57.5 -284t153.5 -99q106 0 221 115.5t208.5 305.5t145.5 410q-135 -196 -347.5 -318.5 t-438.5 -129.5zM512 387q114 10 224 59.5t196 123t159 165t121.5 186t75.5 184.5t27 163q0 198 -150 198q-65 0 -138 -42.5t-141.5 -115.5t-133 -176.5t-114 -221t-83.5 -254t-43 -269.5zM1147 1702l217 229l90 -98l-248 -199z" />
<glyph unicode="&#xd4;" horiz-adv-x="1497" d="M10 682q-2 39 4.5 75.5t12.5 53t8 18.5l141 35q-8 -33 -12.5 -64t-9 -81.5t3.5 -94.5t25 -88.5t55 -79.5t94 -53q7 151 53.5 314t126.5 310.5t180.5 266t225 188.5t249.5 70q62 0 111.5 -18.5t81.5 -49t54 -72.5t31 -86.5t9 -92.5q0 -113 -29 -215q23 -82 23 -182 q-1 -134 -40.5 -278.5t-111 -274t-162.5 -233.5t-203 -165t-224 -61q-163 0 -263 130.5t-112 354.5q-70 15 -126.5 46t-91.5 68.5t-59 83.5t-34 88.5t-11 86.5zM506 293q0 -185 57.5 -284t153.5 -99q106 0 221 115.5t208.5 305.5t145.5 410q-135 -196 -347.5 -318.5 t-438.5 -129.5zM512 387q114 10 224 59.5t196 123t159 165t121.5 186t75.5 184.5t27 163q0 198 -150 198q-65 0 -138 -42.5t-141.5 -115.5t-133 -176.5t-114 -221t-83.5 -254t-43 -269.5zM987 1702l260 194l154 -208l-98 -70l-76 166l-168 -168z" />
<glyph unicode="&#xd5;" horiz-adv-x="1497" d="M10 682q-2 39 4.5 75.5t12.5 53t8 18.5l141 35q-8 -33 -12.5 -64t-9 -81.5t3.5 -94.5t25 -88.5t55 -79.5t94 -53q7 151 53.5 314t126.5 310.5t180.5 266t225 188.5t249.5 70q62 0 111.5 -18.5t81.5 -49t54 -72.5t31 -86.5t9 -92.5q0 -113 -29 -215q23 -82 23 -182 q-1 -134 -40.5 -278.5t-111 -274t-162.5 -233.5t-203 -165t-224 -61q-163 0 -263 130.5t-112 354.5q-70 15 -126.5 46t-91.5 68.5t-59 83.5t-34 88.5t-11 86.5zM506 293q0 -185 57.5 -284t153.5 -99q106 0 221 115.5t208.5 305.5t145.5 410q-135 -196 -347.5 -318.5 t-438.5 -129.5zM512 387q114 10 224 59.5t196 123t159 165t121.5 186t75.5 184.5t27 163q0 198 -150 198q-65 0 -138 -42.5t-141.5 -115.5t-133 -176.5t-114 -221t-83.5 -254t-43 -269.5zM926 1675q15 44 54.5 78.5t104.5 34.5q49 0 132 -21.5t129 -21.5q39 0 60.5 13.5 t25.5 29.5l45 -27q-39 -110 -160 -110q-51 0 -131.5 29.5t-124.5 29.5q-38 0 -60.5 -19.5t-29.5 -39.5z" />
<glyph unicode="&#xd6;" horiz-adv-x="1497" d="M10 682q-2 39 4.5 75.5t12.5 53t8 18.5l141 35q-8 -33 -12.5 -64t-9 -81.5t3.5 -94.5t25 -88.5t55 -79.5t94 -53q7 151 53.5 314t126.5 310.5t180.5 266t225 188.5t249.5 70q62 0 111.5 -18.5t81.5 -49t54 -72.5t31 -86.5t9 -92.5q0 -113 -29 -215q23 -82 23 -182 q-1 -134 -40.5 -278.5t-111 -274t-162.5 -233.5t-203 -165t-224 -61q-163 0 -263 130.5t-112 354.5q-70 15 -126.5 46t-91.5 68.5t-59 83.5t-34 88.5t-11 86.5zM506 293q0 -185 57.5 -284t153.5 -99q106 0 221 115.5t208.5 305.5t145.5 410q-135 -196 -347.5 -318.5 t-438.5 -129.5zM512 387q114 10 224 59.5t196 123t159 165t121.5 186t75.5 184.5t27 163q0 198 -150 198q-65 0 -138 -42.5t-141.5 -115.5t-133 -176.5t-114 -221t-83.5 -254t-43 -269.5zM999 1700q0 43 33.5 83t81.5 40q55 0 55 -60q0 -42 -30.5 -82.5t-81.5 -40.5 q-28 0 -43 17t-15 43zM1253 1700q0 44 31.5 83.5t77.5 39.5q57 0 57 -60q0 -41 -30.5 -82t-79.5 -41q-56 0 -56 60z" />
<glyph unicode="&#xd7;" horiz-adv-x="497" d="M-14 281l184 202l-76 215l96 35l62 -162l147 162l76 -74l-182 -200l76 -213l-103 -37l-55 160l-145 -160z" />
<glyph unicode="&#xd8;" horiz-adv-x="1497" d="M10 684q0 39 7 75t13.5 52t8.5 18l141 35q-2 -2 -7 -23t-11 -63t-6 -84q0 -222 178 -278q7 125 41.5 259.5t90.5 260t133.5 238t166 196.5t193 133t208.5 49q75 0 144 -32l96 176h88l-127 -223q86 -83 86 -240q0 -113 -29 -215q23 -75 23 -178q0 -134 -38.5 -278.5 t-109 -273.5t-160.5 -232.5t-201.5 -164.5t-223.5 -61q-130 0 -219 80l-127 -225h-88l161 282q-95 126 -104 346q-71 15 -128.5 46t-94 68.5t-61 83t-34.5 88t-10 85.5zM508 297q0 -98 18 -172l105 184q-56 -9 -119 -12h-4zM514 403q99 3 193 46l559 991q-40 26 -101 26 q-98 0 -208 -91.5t-201.5 -237.5t-158.5 -342.5t-83 -391.5zM561 25q53 -109 158 -109q108 0 224 115t208.5 304t144.5 408q-101 -145 -247.5 -251.5t-315.5 -157.5zM827 506q147 84 266 225t180.5 283.5t61.5 257.5q0 57 -20 102z" />
<glyph unicode="&#xd9;" horiz-adv-x="1343" d="M-92 1028q0 90 36.5 183t99 169t155 124t194.5 48q158 0 257.5 -102t99.5 -299q0 -103 -46 -278.5t-100.5 -332.5t-100.5 -316.5t-46 -235.5q0 -68 39 -68q23 0 64.5 32t103.5 106t131.5 179t156 268t168.5 355q86 207 238 678h168l-549 -1702h-166l166 516 q-137 -247 -269 -384.5t-247 -137.5q-150 0 -150 182q0 92 30 217t72.5 249.5t84.5 248.5t72 248.5t30 216.5q0 140 -61.5 207t-157.5 67q-97 0 -177 -68.5t-120.5 -165t-40.5 -192.5q0 -76 30 -119.5t77 -43.5q58 0 112 86l-4 -138q-71 -49 -147 -49q-87 0 -145 67.5 t-58 184.5zM852 1833l92 98l217 -229l-59 -68z" />
<glyph unicode="&#xda;" horiz-adv-x="1343" d="M-92 1028q0 90 36.5 183t99 169t155 124t194.5 48q158 0 257.5 -102t99.5 -299q0 -103 -46 -278.5t-100.5 -332.5t-100.5 -316.5t-46 -235.5q0 -68 39 -68q23 0 64.5 32t103.5 106t131.5 179t156 268t168.5 355q86 207 238 678h168l-549 -1702h-166l166 516 q-137 -247 -269 -384.5t-247 -137.5q-150 0 -150 182q0 92 30 217t72.5 249.5t84.5 248.5t72 248.5t30 216.5q0 140 -61.5 207t-157.5 67q-97 0 -177 -68.5t-120.5 -165t-40.5 -192.5q0 -76 30 -119.5t77 -43.5q58 0 112 86l-4 -138q-71 -49 -147 -49q-87 0 -145 67.5 t-58 184.5zM1032 1702l217 229l90 -98l-247 -199z" />
<glyph unicode="&#xdb;" horiz-adv-x="1343" d="M-92 1028q0 90 36.5 183t99 169t155 124t194.5 48q158 0 257.5 -102t99.5 -299q0 -103 -46 -278.5t-100.5 -332.5t-100.5 -316.5t-46 -235.5q0 -68 39 -68q23 0 64.5 32t103.5 106t131.5 179t156 268t168.5 355q86 207 238 678h168l-549 -1702h-166l166 516 q-137 -247 -269 -384.5t-247 -137.5q-150 0 -150 182q0 92 30 217t72.5 249.5t84.5 248.5t72 248.5t30 216.5q0 140 -61.5 207t-157.5 67q-97 0 -177 -68.5t-120.5 -165t-40.5 -192.5q0 -76 30 -119.5t77 -43.5q58 0 112 86l-4 -138q-71 -49 -147 -49q-87 0 -145 67.5 t-58 184.5zM920 1702l260 194l153 -208l-98 -70l-76 166l-168 -168z" />
<glyph unicode="&#xdc;" horiz-adv-x="1343" d="M-92 1028q0 90 36.5 183t99 169t155 124t194.5 48q158 0 257.5 -102t99.5 -299q0 -103 -46 -278.5t-100.5 -332.5t-100.5 -316.5t-46 -235.5q0 -68 39 -68q23 0 64.5 32t103.5 106t131.5 179t156 268t168.5 355q86 207 238 678h168l-549 -1702h-166l166 516 q-137 -247 -269 -384.5t-247 -137.5q-150 0 -150 182q0 92 30 217t72.5 249.5t84.5 248.5t72 248.5t30 216.5q0 140 -61.5 207t-157.5 67q-97 0 -177 -68.5t-120.5 -165t-40.5 -192.5q0 -76 30 -119.5t77 -43.5q58 0 112 86l-4 -138q-71 -49 -147 -49q-87 0 -145 67.5 t-58 184.5zM907 1700q0 43 33.5 83t81.5 40q55 0 55 -60q0 -42 -30.5 -82.5t-81.5 -40.5q-28 0 -43 17t-15 43zM1161 1700q0 44 31.5 83.5t77.5 39.5q57 0 57 -60q0 -41 -30.5 -82t-79.5 -41q-56 0 -56 60z" />
<glyph unicode="&#xdd;" horiz-adv-x="1359" d="M-92 1024q0 129 57.5 250t163 199.5t229.5 78.5q157 0 256 -106t99 -305q0 -93 -28.5 -210.5t-56.5 -217.5t-28 -150q0 -65 47 -65q25 0 65 28t100.5 96t127 167t150.5 257.5t167 350.5q12 25 20.5 46.5t18.5 53.5t13 41h166q-297 -910 -416 -1290q-22 -71 -41 -113 q109 -83 160 -182l-119 -70q-34 86 -88 142q-90 -188 -211.5 -289t-270.5 -101q-110 0 -172.5 63t-62.5 161q0 106 59.5 194t160 137.5t218.5 49.5q98 0 189 -31l235 727q-141 -255 -269 -390.5t-247 -135.5q-143 0 -143 176q0 76 24.5 178.5t49 213t24.5 204.5 q0 140 -56.5 212t-144.5 72q-82 0 -155 -61.5t-114.5 -154.5t-41.5 -187q0 -88 28 -137t79 -49q57 0 114 86l-6 -138q-71 -49 -147 -49q-89 0 -146 66.5t-57 181.5zM391 -147q0 -68 32 -108t85 -40q190 0 340 412q-72 30 -156 30q-128 0 -214.5 -84t-86.5 -210zM967 1702 l217 229l90 -98l-248 -199z" />
<glyph unicode="&#xdf;" horiz-adv-x="788" d="M-236 -418l451 1424q84 262 179.5 399t197.5 137q58 0 107 -49.5t49 -144.5q0 -70 -17 -143t-37.5 -127.5t-37.5 -137t-17 -168.5q0 -92 19.5 -241t19.5 -226q0 -146 -74.5 -228.5t-191.5 -82.5q-141 0 -189 139l66 80q29 -109 92 -109q51 0 95 67t44 179q0 80 -10 224 t-10 169q0 110 18 213t39 166t39 133t18 123q0 78 -36 78q-26 0 -53 -38t-64.5 -138.5t-57 -161t-67.5 -215.5q-6 -18 -9 -27.5t-7.5 -24.5t-8.5 -28l-389 -1241h-158z" />
<glyph unicode="&#xe0;" d="M-16 248q0 86 30.5 196.5t83 215.5t136.5 177t178 72q75 0 120 -53l17 49h158q-230 -706 -230 -799q0 -38 19 -38q45 0 133 131t164 286q23 12 47.5 2t27.5 -32q-39 -83 -79.5 -154t-92.5 -145.5t-108.5 -118t-108.5 -43.5q-57 0 -91 36t-42 95q-107 -131 -207 -131 q-74 0 -114.5 67t-40.5 187zM117 168q0 -100 47 -100q14 0 32.5 11t43 36.5t55.5 80t61 130.5q77 195 158 475q-19 22 -53 22q-62 0 -126 -68t-111 -167.5t-77 -213.5t-30 -206zM252 1182l92 98l217 -229l-59 -68z" />
<glyph unicode="&#xe1;" d="M-16 248q0 86 30.5 196.5t83 215.5t136.5 177t178 72q75 0 120 -53l17 49h158q-230 -706 -230 -799q0 -38 19 -38q45 0 133 131t164 286q23 12 47.5 2t27.5 -32q-39 -83 -79.5 -154t-92.5 -145.5t-108.5 -118t-108.5 -43.5q-57 0 -91 36t-42 95q-107 -131 -207 -131 q-74 0 -114.5 67t-40.5 187zM117 168q0 -100 47 -100q14 0 32.5 11t43 36.5t55.5 80t61 130.5q77 195 158 475q-19 22 -53 22q-62 0 -126 -68t-111 -167.5t-77 -213.5t-30 -206zM422 1051l217 229l90 -98l-248 -199z" />
<glyph unicode="&#xe2;" d="M-16 248q0 86 30.5 196.5t83 215.5t136.5 177t178 72q75 0 120 -53l17 49h158q-230 -706 -230 -799q0 -38 19 -38q45 0 133 131t164 286q23 12 47.5 2t27.5 -32q-39 -83 -79.5 -154t-92.5 -145.5t-108.5 -118t-108.5 -43.5q-57 0 -91 36t-42 95q-107 -131 -207 -131 q-74 0 -114.5 67t-40.5 187zM117 168q0 -100 47 -100q14 0 32.5 11t43 36.5t55.5 80t61 130.5q77 195 158 475q-19 22 -53 22q-62 0 -126 -68t-111 -167.5t-77 -213.5t-30 -206zM279 1051l260 194l153 -209l-98 -69l-76 166l-168 -168z" />
<glyph unicode="&#xe3;" d="M-16 248q0 86 30.5 196.5t83 215.5t136.5 177t178 72q75 0 120 -53l17 49h158q-230 -706 -230 -799q0 -38 19 -38q45 0 133 131t164 286q23 12 47.5 2t27.5 -32q-39 -83 -79.5 -154t-92.5 -145.5t-108.5 -118t-108.5 -43.5q-57 0 -91 36t-42 95q-107 -131 -207 -131 q-74 0 -114.5 67t-40.5 187zM117 168q0 -100 47 -100q14 0 32.5 11t43 36.5t55.5 80t61 130.5q77 195 158 475q-19 22 -53 22q-62 0 -126 -68t-111 -167.5t-77 -213.5t-30 -206zM219 1024q15 44 55 78.5t105 34.5q49 0 131 -21.5t129 -21.5q39 0 60.5 13.5t25.5 29.5l45 -27 q-39 -111 -160 -111q-51 0 -131.5 30t-124.5 30q-27 0 -48 -12.5t-29.5 -24.5t-12.5 -23z" />
<glyph unicode="&#xe4;" d="M-16 248q0 86 30.5 196.5t83 215.5t136.5 177t178 72q75 0 120 -53l17 49h158q-230 -706 -230 -799q0 -38 19 -38q45 0 133 131t164 286q23 12 47.5 2t27.5 -32q-39 -83 -79.5 -154t-92.5 -145.5t-108.5 -118t-108.5 -43.5q-57 0 -91 36t-42 95q-107 -131 -207 -131 q-74 0 -114.5 67t-40.5 187zM117 168q0 -100 47 -100q14 0 32.5 11t43 36.5t55.5 80t61 130.5q77 195 158 475q-19 22 -53 22q-62 0 -126 -68t-111 -167.5t-77 -213.5t-30 -206zM322 1061q0 43 33 83t81 40q56 0 56 -60q0 -41 -31 -82t-82 -41q-28 0 -42.5 17t-14.5 43z M575 1061q0 44 31.5 83.5t77.5 39.5q57 0 57 -60q0 -41 -30.5 -82t-79.5 -41q-56 0 -56 60z" />
<glyph unicode="&#xe5;" d="M-16 248q0 80 26.5 182.5t72.5 202t119.5 176t157.5 94.5q-53 29 -53 111q0 87 65 162t156 75q56 0 84.5 -31t28.5 -83q0 -71 -45 -144t-119 -96q33 -13 55 -41l17 49h158q-230 -706 -230 -799q0 -38 19 -38q45 0 133 131t164 286q23 12 47.5 2t27.5 -32 q-39 -83 -79.5 -154t-92.5 -145.5t-108.5 -118t-108.5 -43.5q-57 0 -91 36t-42 95q-107 -131 -207 -131q-74 0 -114.5 67t-40.5 187zM117 168q0 -100 47 -100q14 0 32.5 11t43 36.5t55.5 80t61 130.5q77 195 158 475q-19 22 -53 22q-62 0 -126 -68t-111 -167.5t-77 -213.5 t-30 -206zM387 1014q0 -74 53 -74q48 0 85.5 62t37.5 131q0 30 -14 49.5t-39 19.5q-46 0 -84.5 -58t-38.5 -130z" />
<glyph unicode="&#xe6;" horiz-adv-x="999" d="M-16 248q0 86 30.5 196.5t83 215.5t136.5 177t178 72q76 0 118 -53l15 49h157l-18 -61q69 65 141 65q61 0 100.5 -46.5t39.5 -137.5q0 -115 -60.5 -213.5t-160 -157.5t-214.5 -67q-7 -28 -0.5 -65.5t19 -71.5t41 -58t65.5 -24q80 0 184.5 104t211.5 313q23 12 47.5 2 t27.5 -32q-123 -248 -244.5 -354.5t-260.5 -106.5q-79 0 -143.5 47t-86.5 145q-66 -103 -134 -147.5t-120 -44.5q-75 0 -114 66.5t-39 187.5zM115 164q0 -46 12.5 -71t32.5 -25q15 0 34 11t45 36.5t56.5 80t60.5 130.5q29 74 61.5 171.5t61 190t35.5 113.5q-19 22 -57 22 q-82 0 -164 -113t-130 -266.5t-48 -279.5zM535 350q66 10 123 56t92.5 108.5t56 128t22.5 121.5q4 65 -30 65q-57 0 -135 -137.5t-129 -341.5z" />
<glyph unicode="&#xe7;" horiz-adv-x="606" d="M-12 -342l84 72q13 -66 65 -66q51 0 86 46t35 91q0 66 -55 66q-53 0 -107 -62l-39 31l62 189q-121 69 -121 258q0 152 59.5 297t162 237t216.5 92q68 0 112 -49.5t44 -150.5q0 -79 -21 -146l-149 -57q47 103 47 213t-47 110q-39 0 -86.5 -52t-87.5 -132t-67 -185.5 t-27 -203.5q0 -77 25 -132.5t75 -55.5q206 0 403 417q25 12 49 2t27 -32q-205 -461 -500 -461q-15 0 -43 4l-32 -96q35 35 84 35q51 0 79.5 -32t28.5 -81q0 -96 -69.5 -165t-157.5 -69q-94 0 -135 68z" />
<glyph unicode="&#xe8;" horiz-adv-x="628" d="M-2 279q0 148 62.5 295t165 241t208.5 94q60 0 104 -47.5t44 -136.5q0 -174 -128.5 -300t-308.5 -138q-3 -31 1.5 -66t17 -70.5t41 -59t67.5 -23.5q82 0 192 105t216 312q23 12 48 2t28 -32q-120 -246 -247 -353.5t-271 -107.5q-46 0 -86.5 15.5t-76 47.5t-56.5 89 t-21 133zM154 350q65 10 122.5 57.5t93 110.5t56 128.5t20.5 117.5q0 65 -28 65q-58 0 -135.5 -137t-128.5 -342zM203 1182l92 98l217 -229l-59 -68z" />
<glyph unicode="&#xe9;" horiz-adv-x="628" d="M-2 279q0 148 62.5 295t165 241t208.5 94q60 0 104 -47.5t44 -136.5q0 -174 -128.5 -300t-308.5 -138q-3 -31 1.5 -66t17 -70.5t41 -59t67.5 -23.5q82 0 192 105t216 312q23 12 48 2t28 -32q-120 -246 -247 -353.5t-271 -107.5q-46 0 -86.5 15.5t-76 47.5t-56.5 89 t-21 133zM154 350q65 10 122.5 57.5t93 110.5t56 128.5t20.5 117.5q0 65 -28 65q-58 0 -135.5 -137t-128.5 -342zM369 1051l217 229l90 -98l-248 -199z" />
<glyph unicode="&#xea;" horiz-adv-x="628" d="M-2 279q0 148 62.5 295t165 241t208.5 94q60 0 104 -47.5t44 -136.5q0 -174 -128.5 -300t-308.5 -138q-3 -31 1.5 -66t17 -70.5t41 -59t67.5 -23.5q82 0 192 105t216 312q23 12 48 2t28 -32q-120 -246 -247 -353.5t-271 -107.5q-46 0 -86.5 15.5t-76 47.5t-56.5 89 t-21 133zM154 350q65 10 122.5 57.5t93 110.5t56 128.5t20.5 117.5q0 65 -28 65q-58 0 -135.5 -137t-128.5 -342zM244 1051l260 194l153 -209l-98 -69l-76 166l-168 -168z" />
<glyph unicode="&#xeb;" horiz-adv-x="628" d="M-2 279q0 148 62.5 295t165 241t208.5 94q60 0 104 -47.5t44 -136.5q0 -174 -128.5 -300t-308.5 -138q-3 -31 1.5 -66t17 -70.5t41 -59t67.5 -23.5q82 0 192 105t216 312q23 12 48 2t28 -32q-120 -246 -247 -353.5t-271 -107.5q-46 0 -86.5 15.5t-76 47.5t-56.5 89 t-21 133zM154 350q65 10 122.5 57.5t93 110.5t56 128.5t20.5 117.5q0 65 -28 65q-58 0 -135.5 -137t-128.5 -342zM266 1061q0 43 33.5 83t81.5 40q55 0 55 -60q0 -42 -30.5 -82.5t-81.5 -40.5q-28 0 -43 17t-15 43zM520 1061q0 44 31.5 83.5t77.5 39.5q57 0 57 -60 q0 -41 -31 -82t-80 -41q-55 0 -55 60z" />
<glyph unicode="&#xec;" horiz-adv-x="362" d="M-31 145q0 97 97 398l114 362h158l-199 -631q-43 -131 -43 -168q0 -38 23 -38q45 0 133.5 132t161.5 285q25 11 47 1.5t28 -31.5q-33 -67 -62 -122t-71 -121.5t-81 -111t-85.5 -75.5t-89.5 -31q-57 0 -94 41t-37 110zM41 1182l92 98l217 -229l-59 -68z" />
<glyph unicode="&#xed;" horiz-adv-x="362" d="M-31 145q0 97 97 398l114 362h158l-199 -631q-43 -131 -43 -168q0 -38 23 -38q45 0 133.5 132t161.5 285q25 11 47 1.5t28 -31.5q-33 -67 -62 -122t-71 -121.5t-81 -111t-85.5 -75.5t-89.5 -31q-57 0 -94 41t-37 110zM217 1051l217 229l90 -98l-248 -199z" />
<glyph unicode="&#xee;" horiz-adv-x="362" d="M-31 145q0 97 97 398l114 362h158l-199 -631q-43 -131 -43 -168q0 -38 23 -38q45 0 133.5 132t161.5 285q25 11 47 1.5t28 -31.5q-33 -67 -62 -122t-71 -121.5t-81 -111t-85.5 -75.5t-89.5 -31q-57 0 -94 41t-37 110zM84 1051l260 194l154 -209l-99 -69l-75 166 l-168 -168z" />
<glyph unicode="&#xef;" horiz-adv-x="362" d="M-31 145q0 97 97 398l114 362h158l-199 -631q-43 -131 -43 -168q0 -38 23 -38q45 0 133.5 132t161.5 285q25 11 47 1.5t28 -31.5q-33 -67 -62 -122t-71 -121.5t-81 -111t-85.5 -75.5t-89.5 -31q-57 0 -94 41t-37 110zM104 1067q0 43 33.5 83t81.5 40q55 0 55 -60 q0 -42 -30.5 -82t-81.5 -40q-28 0 -43 16.5t-15 42.5zM358 1067q0 44 31.5 83.5t77.5 39.5q57 0 57 -60q0 -41 -30.5 -81.5t-79.5 -40.5q-56 0 -56 59z" />
<glyph unicode="&#xf1;" horiz-adv-x="735" d="M-104 0l288 905h154l-49 -162q52 73 124.5 119.5t137.5 46.5q53 0 79.5 -40t26.5 -103q0 -80 -42 -218t-84 -264.5t-42 -177.5q0 -38 23 -38q41 0 118 125.5t156 291.5q23 12 46.5 2t29.5 -32q-96 -199 -144 -274q-119 -187 -233 -187q-58 0 -96.5 48.5t-38.5 125.5 q0 65 41 193.5t82 247t41 161.5q0 22 -6 29.5t-23 7.5q-29 0 -76 -42t-90 -106q-99 -145 -167 -350l-99 -309h-157zM215 1024q15 44 55 78.5t105 34.5q49 0 131 -21.5t129 -21.5q39 0 60.5 13.5t25.5 29.5l45 -27q-39 -111 -160 -111q-51 0 -131.5 30t-124.5 30 q-27 0 -48 -12.5t-29.5 -24.5t-12.5 -23z" />
<glyph unicode="&#xf2;" horiz-adv-x="708" d="M-23 256q0 133 69.5 269t152.5 196q35 70 100.5 129t144.5 59q86 0 133.5 -67t47.5 -176q0 -104 -44.5 -235t-117.5 -236q76 13 158.5 95.5t138.5 194.5q25 12 48 2t28 -32q-46 -94 -101.5 -162t-113 -104t-111 -52t-107.5 -16q-117 -127 -241 -127q-90 0 -137.5 70 t-47.5 192zM111 217q0 -66 15.5 -107.5t43.5 -41.5q63 0 119 88q-63 32 -101.5 107.5t-35.5 191.5q-41 -113 -41 -238zM223 1182l92 98l217 -229l-59 -68zM231 467q0 -185 103 -240q56 110 95.5 254.5t39.5 227.5q0 52 -16.5 80t-44.5 28q-41 0 -82.5 -53t-68 -135 t-26.5 -162z" />
<glyph unicode="&#xf3;" horiz-adv-x="708" d="M-23 256q0 133 69.5 269t152.5 196q35 70 100.5 129t144.5 59q86 0 133.5 -67t47.5 -176q0 -104 -44.5 -235t-117.5 -236q76 13 158.5 95.5t138.5 194.5q25 12 48 2t28 -32q-46 -94 -101.5 -162t-113 -104t-111 -52t-107.5 -16q-117 -127 -241 -127q-90 0 -137.5 70 t-47.5 192zM111 217q0 -66 15.5 -107.5t43.5 -41.5q63 0 119 88q-63 32 -101.5 107.5t-35.5 191.5q-41 -113 -41 -238zM231 467q0 -185 103 -240q56 110 95.5 254.5t39.5 227.5q0 52 -16.5 80t-44.5 28q-41 0 -82.5 -53t-68 -135t-26.5 -162zM406 1051l217 229l90 -98 l-248 -199z" />
<glyph unicode="&#xf4;" horiz-adv-x="708" d="M-23 256q0 133 69.5 269t152.5 196q35 70 100.5 129t144.5 59q86 0 133.5 -67t47.5 -176q0 -104 -44.5 -235t-117.5 -236q76 13 158.5 95.5t138.5 194.5q25 12 48 2t28 -32q-46 -94 -101.5 -162t-113 -104t-111 -52t-107.5 -16q-117 -127 -241 -127q-90 0 -137.5 70 t-47.5 192zM111 217q0 -66 15.5 -107.5t43.5 -41.5q63 0 119 88q-63 32 -101.5 107.5t-35.5 191.5q-41 -113 -41 -238zM231 467q0 -185 103 -240q56 110 95.5 254.5t39.5 227.5q0 52 -16.5 80t-44.5 28q-41 0 -82.5 -53t-68 -135t-26.5 -162zM279 1051l260 194l153 -209 l-98 -69l-76 166l-168 -168z" />
<glyph unicode="&#xf5;" horiz-adv-x="708" d="M-23 256q0 133 69.5 269t152.5 196q35 70 100.5 129t144.5 59q86 0 133.5 -67t47.5 -176q0 -104 -44.5 -235t-117.5 -236q76 13 158.5 95.5t138.5 194.5q25 12 48 2t28 -32q-46 -94 -101.5 -162t-113 -104t-111 -52t-107.5 -16q-117 -127 -241 -127q-90 0 -137.5 70 t-47.5 192zM111 217q0 -66 15.5 -107.5t43.5 -41.5q63 0 119 88q-63 32 -101.5 107.5t-35.5 191.5q-41 -113 -41 -238zM203 1024q15 44 54.5 78.5t104.5 34.5q50 0 132 -21.5t129 -21.5q39 0 60.5 13.5t25.5 29.5l45 -27q-39 -111 -160 -111q-51 0 -131.5 30t-124.5 30 q-27 0 -48 -12.5t-29.5 -24.5t-12.5 -23zM231 467q0 -185 103 -240q56 110 95.5 254.5t39.5 227.5q0 52 -16.5 80t-44.5 28q-41 0 -82.5 -53t-68 -135t-26.5 -162z" />
<glyph unicode="&#xf6;" horiz-adv-x="708" d="M-23 256q0 133 69.5 269t152.5 196q35 70 100.5 129t144.5 59q86 0 133.5 -67t47.5 -176q0 -104 -44.5 -235t-117.5 -236q76 13 158.5 95.5t138.5 194.5q25 12 48 2t28 -32q-46 -94 -101.5 -162t-113 -104t-111 -52t-107.5 -16q-117 -127 -241 -127q-90 0 -137.5 70 t-47.5 192zM111 217q0 -66 15.5 -107.5t43.5 -41.5q63 0 119 88q-63 32 -101.5 107.5t-35.5 191.5q-41 -113 -41 -238zM231 467q0 -185 103 -240q56 110 95.5 254.5t39.5 227.5q0 52 -16.5 80t-44.5 28q-41 0 -82.5 -53t-68 -135t-26.5 -162zM303 1061q0 43 33.5 83t81.5 40 q55 0 55 -60q0 -41 -31 -82t-82 -41q-28 0 -42.5 17t-14.5 43zM557 1061q0 44 31.5 83.5t77.5 39.5q57 0 57 -60q0 -41 -31 -82t-80 -41q-55 0 -55 60z" />
<glyph unicode="&#xf7;" horiz-adv-x="557" d="M18 420l35 106h439l-35 -106h-439zM96 193q0 41 32.5 81.5t82.5 40.5q28 0 42.5 -17.5t14.5 -45.5q0 -40 -33.5 -79.5t-76.5 -39.5q-30 0 -46 16.5t-16 43.5zM254 686q0 44 31 85.5t82 41.5q27 0 41 -17t14 -44q0 -42 -33 -81.5t-78 -39.5q-57 0 -57 55z" />
<glyph unicode="&#xf8;" horiz-adv-x="708" d="M-23 256q0 133 69 269t151 196q16 31 39 61t54.5 60t72 48.5t81.5 18.5q53 0 84 -22l52 88h45l-64 -115q64 -67 64 -194q0 -104 -44 -234t-118 -237q76 13 157.5 95t139.5 195q23 12 46.5 2t29.5 -32q-46 -94 -101 -162t-112 -104t-110.5 -52t-109.5 -16 q-117 -127 -241 -127q-38 0 -78 16l-45 -78h-45l59 101q-76 67 -76 223zM114 288.5q-9 -84.5 3 -143.5l69 125q-34 64 -34 185q-29 -82 -38 -166.5zM131 94q14 -26 39 -26q60 0 119 88q-46 21 -80 73zM231 467q0 -61 9 -98l223 397q-12 51 -57 51q-40 0 -81 -53t-67.5 -135 t-26.5 -162zM254 315q25 -58 80 -88q55 104 94 243.5t41 227.5z" />
<glyph unicode="&#xf9;" horiz-adv-x="759" d="M6 240q0 112 47 262l127 403h158l-98 -307q-2 -6 -15 -45.5t-17.5 -54.5t-16.5 -54.5t-17.5 -61.5l-14.5 -58t-13 -61t-7.5 -54t-3.5 -53q0 -45 10.5 -66.5t24.5 -21.5q55 0 133 118q16 23 34 59.5t34 74t35 89t32 90.5t30.5 94t26 83t22 73.5t15.5 51.5l33 104h158 q-10 -31 -49 -152t-63.5 -199.5t-55.5 -182t-47 -171t-16 -94.5q0 -38 22 -38q43 0 131 131t166 286q23 12 48 2t28 -32q-38 -83 -78 -154.5t-92 -145.5t-109.5 -117.5t-111.5 -43.5q-55 0 -90.5 36.5t-43.5 94.5q-107 -131 -204 -131q-65 0 -108.5 67t-43.5 179zM219 1182 l92 98l217 -229l-59 -68z" />
<glyph unicode="&#xfa;" horiz-adv-x="759" d="M6 240q0 112 47 262l127 403h158l-98 -307q-2 -6 -15 -45.5t-17.5 -54.5t-16.5 -54.5t-17.5 -61.5l-14.5 -58t-13 -61t-7.5 -54t-3.5 -53q0 -45 10.5 -66.5t24.5 -21.5q55 0 133 118q16 23 34 59.5t34 74t35 89t32 90.5t30.5 94t26 83t22 73.5t15.5 51.5l33 104h158 q-10 -31 -49 -152t-63.5 -199.5t-55.5 -182t-47 -171t-16 -94.5q0 -38 22 -38q43 0 131 131t166 286q23 12 48 2t28 -32q-38 -83 -78 -154.5t-92 -145.5t-109.5 -117.5t-111.5 -43.5q-55 0 -90.5 36.5t-43.5 94.5q-107 -131 -204 -131q-65 0 -108.5 67t-43.5 179zM418 1051 l217 229l90 -98l-248 -199z" />
<glyph unicode="&#xfb;" horiz-adv-x="759" d="M6 240q0 112 47 262l127 403h158l-98 -307q-2 -6 -15 -45.5t-17.5 -54.5t-16.5 -54.5t-17.5 -61.5l-14.5 -58t-13 -61t-7.5 -54t-3.5 -53q0 -45 10.5 -66.5t24.5 -21.5q55 0 133 118q16 23 34 59.5t34 74t35 89t32 90.5t30.5 94t26 83t22 73.5t15.5 51.5l33 104h158 q-10 -31 -49 -152t-63.5 -199.5t-55.5 -182t-47 -171t-16 -94.5q0 -38 22 -38q43 0 131 131t166 286q23 12 48 2t28 -32q-38 -83 -78 -154.5t-92 -145.5t-109.5 -117.5t-111.5 -43.5q-55 0 -90.5 36.5t-43.5 94.5q-107 -131 -204 -131q-65 0 -108.5 67t-43.5 179zM303 1051 l260 194l154 -209l-99 -69l-75 166l-168 -168z" />
<glyph unicode="&#xfc;" horiz-adv-x="759" d="M6 240q0 112 47 262l127 403h158l-98 -307q-2 -6 -15 -45.5t-17.5 -54.5t-16.5 -54.5t-17.5 -61.5l-14.5 -58t-13 -61t-7.5 -54t-3.5 -53q0 -45 10.5 -66.5t24.5 -21.5q55 0 133 118q16 23 34 59.5t34 74t35 89t32 90.5t30.5 94t26 83t22 73.5t15.5 51.5l33 104h158 q-10 -31 -49 -152t-63.5 -199.5t-55.5 -182t-47 -171t-16 -94.5q0 -38 22 -38q43 0 131 131t166 286q23 12 48 2t28 -32q-38 -83 -78 -154.5t-92 -145.5t-109.5 -117.5t-111.5 -43.5q-55 0 -90.5 36.5t-43.5 94.5q-107 -131 -204 -131q-65 0 -108.5 67t-43.5 179zM289 1061 q0 43 33 83t81 40q56 0 56 -60q0 -41 -31 -82t-82 -41q-28 0 -42.5 17t-14.5 43zM543 1061q0 44 31 83.5t77 39.5q58 0 58 -60q0 -41 -31 -82t-80 -41q-55 0 -55 60z" />
<glyph unicode="&#xfd;" horiz-adv-x="745" d="M-39 -379q0 76 69 162t228 170l39 119q-78 -60 -139 -60q-65 0 -108.5 66.5t-43.5 177.5q0 115 72 331q4 13 6 19l96 299h158l-98 -307q-78 -237 -95 -335q-10 -54 -10 -93q0 -45 12.5 -64.5t28.5 -19.5q48 0 127 117q31 45 69.5 138.5t62.5 164t59 181t36 114.5l31 104 h158l-264 -842q75 49 117 85.5t99 118t126 218.5q25 12 47.5 2t27.5 -32q-59 -119 -110.5 -199.5t-111 -135t-93 -77t-111.5 -65.5q-17 -10 -26 -15q-39 -130 -83.5 -223t-88.5 -142.5t-84.5 -71.5t-81.5 -22q-58 0 -89.5 32t-31.5 85zM35 -403q0 -37 26 -37q76 0 166 288 q-61 -30 -126.5 -108t-65.5 -143zM397 1051l217 229l91 -98l-248 -199z" />
<glyph unicode="&#xff;" horiz-adv-x="745" d="M-39 -379q0 76 69 162t228 170l39 119q-78 -60 -139 -60q-65 0 -108.5 66.5t-43.5 177.5q0 115 72 331q4 13 6 19l96 299h158l-98 -307q-78 -237 -95 -335q-10 -54 -10 -93q0 -45 12.5 -64.5t28.5 -19.5q48 0 127 117q31 45 69.5 138.5t62.5 164t59 181t36 114.5l31 104 h158l-264 -842q75 49 117 85.5t99 118t126 218.5q25 12 47.5 2t27.5 -32q-59 -119 -110.5 -199.5t-111 -135t-93 -77t-111.5 -65.5q-17 -10 -26 -15q-39 -130 -83.5 -223t-88.5 -142.5t-84.5 -71.5t-81.5 -22q-58 0 -89.5 32t-31.5 85zM35 -403q0 -37 26 -37q76 0 166 288 q-61 -30 -126.5 -108t-65.5 -143zM289 1061q0 43 33 83t81 40q56 0 56 -60q0 -41 -31 -82t-82 -41q-28 0 -42.5 17t-14.5 43zM543 1061q0 44 31 83.5t77 39.5q58 0 58 -60q0 -41 -31 -82t-80 -41q-55 0 -55 60z" />
<glyph unicode="&#x152;" horiz-adv-x="2269" d="M10 684q0 39 7 75t13.5 52t8.5 18l141 35q-2 -2 -7.5 -22.5t-11 -59t-5.5 -75.5q0 -235 178 -291q7 125 41.5 259.5t90.5 260t133.5 238t166 196.5t193 133t208.5 49q62 0 111.5 -18t82 -48.5t54 -72t30.5 -86.5t9 -94q0 -113 -29 -215q23 -75 23 -178q0 -70 -6 -109 q83 56 170.5 87t150.5 38q-28 7 -62 30.5t-68 60t-56.5 92t-22.5 116.5q0 166 117.5 281.5t294.5 115.5q134 0 207.5 -71t73.5 -168q0 -80 -49 -145t-101 -101l-100 74q62 45 94.5 98t32.5 104q0 58 -41 97t-109 39q-109 0 -186.5 -96t-77.5 -226q0 -117 70.5 -190.5 t181.5 -96.5l-25 -82q-112 5 -218.5 -31t-190.5 -104t-135.5 -174t-51.5 -231q0 -154 96 -252t257 -98q83 0 151 28.5t110 71.5t70.5 96.5t40 101t11.5 87.5q0 90 -32 140t-91 50q-56 0 -103 -41t-74.5 -97t-45.5 -126l-109 65q15 42 40.5 84.5t66.5 88t103 74t134 28.5 q103 0 174.5 -72t71.5 -194q0 -82 -42 -164t-112.5 -147.5t-173 -106.5t-215.5 -41q-173 0 -302.5 79t-174.5 218q-102 -135 -225.5 -213t-251.5 -78q-167 0 -266 129t-111 354q-71 15 -128.5 46t-94 68.5t-61 83t-34.5 88t-10 85.5zM508 297q0 -181 58 -281t153 -100 q108 0 224 115t208.5 304t144.5 408q-135 -196 -348 -318t-440 -128zM514 403q116 9 227.5 57t199.5 120t163.5 162t125 183.5t77.5 183.5t28 163q0 101 -48 147.5t-122 46.5q-98 0 -208 -91.5t-201.5 -237.5t-158.5 -342.5t-83 -391.5z" />
<glyph unicode="&#x153;" horiz-adv-x="1028" d="M-23 240q0 101 37 218t97.5 217t148 167t178.5 67q117 0 162 -123q120 123 236 123q60 0 104.5 -47.5t44.5 -136.5q0 -174 -129 -300t-309 -138q-3 -30 1.5 -66t17.5 -71t41 -58.5t65 -23.5q83 0 195 106t212 311q23 12 46.5 2t29.5 -32q-121 -247 -248 -354t-270 -107 q-69 0 -128.5 36.5t-88.5 114.5q-131 -151 -266 -151q-84 0 -130.5 67.5t-46.5 178.5zM131 195q0 -58 10 -87.5t39 -29.5q50 0 103 70.5t91.5 170t63.5 207t25 183.5q0 127 -47 127q-50 0 -103.5 -71.5t-92.5 -173t-64 -211t-25 -185.5zM555 350q66 10 123.5 58t93 111.5 t56 129t20.5 117.5q0 63 -29 63q-45 0 -100 -81t-97 -188t-67 -210z" />
<glyph unicode="&#x178;" horiz-adv-x="1359" d="M-92 1024q0 129 57.5 250t163 199.5t229.5 78.5q157 0 256 -106t99 -305q0 -93 -28.5 -210.5t-56.5 -217.5t-28 -150q0 -65 47 -65q25 0 65 28t100.5 96t127 167t150.5 257.5t167 350.5q12 25 20.5 46.5t18.5 53.5t13 41h166q-297 -910 -416 -1290q-22 -71 -41 -113 q109 -83 160 -182l-119 -70q-34 86 -88 142q-90 -188 -211.5 -289t-270.5 -101q-110 0 -172.5 63t-62.5 161q0 106 59.5 194t160 137.5t218.5 49.5q98 0 189 -31l235 727q-141 -255 -269 -390.5t-247 -135.5q-143 0 -143 176q0 76 24.5 178.5t49 213t24.5 204.5 q0 140 -56.5 212t-144.5 72q-82 0 -155 -61.5t-114.5 -154.5t-41.5 -187q0 -88 28 -137t79 -49q57 0 114 86l-6 -138q-71 -49 -147 -49q-89 0 -146 66.5t-57 181.5zM391 -147q0 -68 32 -108t85 -40q190 0 340 412q-72 30 -156 30q-128 0 -214.5 -84t-86.5 -210zM823 1712 q0 43 33.5 83t81.5 40q55 0 55 -59q0 -42 -30.5 -82.5t-81.5 -40.5q-28 0 -43 16.5t-15 42.5zM1077 1712q0 44 31.5 83.5t77.5 39.5q57 0 57 -59q0 -41 -30.5 -82t-79.5 -41q-56 0 -56 59z" />
<glyph unicode="&#x2c6;" horiz-adv-x="1576" d="M713 1051l260 194l153 -209l-98 -69l-76 166l-168 -168z" />
<glyph unicode="&#x2dc;" horiz-adv-x="1576" d="M637 1024q15 44 55 78.5t105 34.5q49 0 131.5 -21.5t128.5 -21.5q39 0 60.5 13.5t25.5 29.5l45 -27q-39 -111 -160 -111q-51 0 -131.5 30t-124.5 30q-27 0 -48 -12.5t-29.5 -24.5t-12.5 -23z" />
<glyph unicode="&#x2000;" horiz-adv-x="965" />
<glyph unicode="&#x2001;" horiz-adv-x="1931" />
<glyph unicode="&#x2002;" horiz-adv-x="965" />
<glyph unicode="&#x2003;" horiz-adv-x="1931" />
<glyph unicode="&#x2004;" horiz-adv-x="643" />
<glyph unicode="&#x2005;" horiz-adv-x="482" />
<glyph unicode="&#x2006;" horiz-adv-x="321" />
<glyph unicode="&#x2007;" horiz-adv-x="321" />
<glyph unicode="&#x2008;" horiz-adv-x="241" />
<glyph unicode="&#x2009;" horiz-adv-x="386" />
<glyph unicode="&#x200a;" horiz-adv-x="107" />
<glyph unicode="&#x2010;" horiz-adv-x="788" d="M215 420l31 104h420l-31 -104h-420z" />
<glyph unicode="&#x2011;" horiz-adv-x="788" d="M215 420l31 104h420l-31 -104h-420z" />
<glyph unicode="&#x2012;" horiz-adv-x="788" d="M215 420l31 104h420l-31 -104h-420z" />
<glyph unicode="&#x2013;" horiz-adv-x="1021" d="M215 420l35 104h649l-31 -104h-653z" />
<glyph unicode="&#x2014;" horiz-adv-x="1259" d="M215 420l35 104h887l-35 -104h-887z" />
<glyph unicode="&#x2018;" horiz-adv-x="389" d="M219 1309q0 82 61.5 154t139.5 81l-23 -76q-21 -3 -44 -18t-34 -33q34 8 52 -11.5t18 -49.5q0 -40 -33.5 -79.5t-79.5 -39.5q-26 0 -41.5 20.5t-15.5 51.5z" />
<glyph unicode="&#x2019;" horiz-adv-x="389" d="M236 1237l22 78q24 2 47 17t33 36q-34 -8 -52 11t-18 51q0 40 31.5 77t77.5 37q26 0 41.5 -18.5t15.5 -50.5q0 -83 -60 -155.5t-138 -82.5z" />
<glyph unicode="&#x201a;" horiz-adv-x="428" d="M31 -133l22 78q24 2 47 17t33 36q-34 -8 -52 10.5t-18 50.5q0 40 31.5 77.5t77.5 37.5q26 0 41.5 -19t15.5 -51q0 -83 -60 -154.5t-138 -82.5z" />
<glyph unicode="&#x201c;" horiz-adv-x="624" d="M219 1309q0 82 62 154t141 81l-23 -76q-21 -3 -44.5 -18.5t-32.5 -32.5q33 8 51 -11.5t18 -49.5q0 -40 -34 -79.5t-81 -39.5q-26 0 -41.5 20.5t-15.5 51.5zM457 1309q0 82 60 154t138 81l-20 -76q-23 -3 -47 -18.5t-33 -32.5q33 8 51.5 -11.5t18.5 -49.5q0 -40 -33 -79.5 t-78 -39.5q-27 0 -42 20t-15 52z" />
<glyph unicode="&#x201d;" horiz-adv-x="620" d="M236 1237l22 78q24 2 47 17t33 36q-34 -8 -52 11t-18 51q0 40 31.5 77t77.5 37q26 0 41.5 -18.5t15.5 -50.5q0 -83 -60 -155.5t-138 -82.5zM469 1237l23 78q23 2 45.5 17t31.5 36q-32 -8 -50.5 11t-18.5 51q0 40 32.5 77t79.5 37q28 0 43 -18.5t15 -50.5 q0 -83 -61.5 -155t-139.5 -83z" />
<glyph unicode="&#x201e;" horiz-adv-x="663" d="M31 -133l22 78q24 2 47 17t33 36q-34 -8 -52 10.5t-18 50.5q0 40 31.5 77.5t77.5 37.5q26 0 41.5 -19t15.5 -51q0 -83 -60 -154.5t-138 -82.5zM264 -133l23 78q23 2 46 17t32 36q-32 -9 -51 10.5t-19 50.5q0 40 33 77.5t80 37.5q27 0 42 -18.5t15 -51.5 q0 -83 -61.5 -154.5t-139.5 -82.5z" />
<glyph unicode="&#x2022;" horiz-adv-x="534" d="M215 444q0 50 34.5 98t92.5 48q33 0 51.5 -21t18.5 -51q0 -51 -38 -97t-93 -46q-66 0 -66 69z" />
<glyph unicode="&#x202f;" horiz-adv-x="386" />
<glyph unicode="&#x2039;" horiz-adv-x="671" d="M182 571l428 351l68 -109l-367 -262l187 -236l-101 -79z" />
<glyph unicode="&#x203a;" horiz-adv-x="671" d="M152 344l366 262l-188 236l102 80l213 -336l-428 -350z" />
<glyph unicode="&#x205f;" horiz-adv-x="482" />
<glyph unicode="&#x20ac;" horiz-adv-x="737" d="M-16 317l22 70h98q1 17 15 74h-92l24 67h88q56 165 164.5 273t231.5 108q68 0 111.5 -48.5t43.5 -147.5q0 -83 -18 -150l-160 -57q45 145 45 223q0 100 -41 100q-42 0 -103.5 -87.5t-103.5 -213.5h142l-23 -67h-139q-1 -9 -7.5 -34t-7.5 -40h134l-23 -70h-121l-2 -61 q0 -188 92 -188q38 0 71 38.5t48 77t19 64.5l116 -23q-11 -32 -29.5 -65t-51.5 -74t-84 -66.5t-111 -25.5q-102 0 -169 74t-67 215v34h-112z" />
<glyph unicode="&#x2122;" horiz-adv-x="743" d="M70 782l157 498h-106l18 59h316l-23 -59h-106l-160 -498h-96zM328 782l180 557h100l-18 -417l260 417h96l-182 -557h-94l123 367l-222 -367h-71l8 369l-117 -369h-63z" />
<glyph unicode="&#x25fc;" horiz-adv-x="911" d="M0 0v911h911v-911h-911z" />
</font>
</defs>
</svg>
